<svg xmlns="http://www.w3.org/2000/svg" xmlns:xlink="http://www.w3.org/1999/xlink" version="1.1" class="marks" width="478" height="332" viewBox="0 0 478 332"><rect width="478" height="332" fill="white"/><g fill="none" stroke-miterlimit="10" transform="translate(31,11)"><g class="mark-group role-frame root" role="graphics-object" aria-roledescription="group mark container"><g transform="translate(0,0)"><path class="background" aria-hidden="true" d="M0,0h400v300h-400Z" stroke-width="0"/><g><g class="mark-group role-axis" aria-hidden="true"><g transform="translate(0.5,300.5)"><path class="background" aria-hidden="true" d="M0,0h0v0h0Z" pointer-events="none"/><g><g class="mark-rule role-axis-grid" pointer-events="none"><line transform="translate(200,-300)" x2="0" y2="300" stroke="#ddd" stroke-opacity="0" stroke-width="1" opacity="1"/></g></g><path class="foreground" aria-hidden="true" d="" pointer-events="none" display="none"/></g></g><g class="mark-group role-axis" aria-hidden="true"><g transform="translate(0.5,0.5)"><path class="background" aria-hidden="true" d="M0,0h0v0h0Z" pointer-events="none"/><g><g class="mark-rule role-axis-grid" pointer-events="none"><line transform="translate(0,300)" x2="400" y2="0" stroke="#122b39" stroke-opacity="0.5" stroke-width="1" stroke-dasharray="1,5" opacity="1"/><line transform="translate(0,267)" x2="400" y2="0" stroke="#122b39" stroke-opacity="0.5" stroke-width="1" stroke-dasharray="1,5" opacity="1"/><line transform="translate(0,233)" x2="400" y2="0" stroke="#122b39" stroke-opacity="0.5" stroke-width="1" stroke-dasharray="1,5" opacity="1"/><line transform="translate(0,200)" x2="400" y2="0" stroke="#122b39" stroke-opacity="0.5" stroke-width="1" stroke-dasharray="1,5" opacity="1"/><line transform="translate(0,167)" x2="400" y2="0" stroke="#122b39" stroke-opacity="0.5" stroke-width="1" stroke-dasharray="1,5" opacity="1"/><line transform="translate(0,133)" x2="400" y2="0" stroke="#122b39" stroke-opacity="0.5" stroke-width="1" stroke-dasharray="1,5" opacity="1"/><line transform="translate(0,100)" x2="400" y2="0" stroke="#122b39" stroke-opacity="0.5" stroke-width="1" stroke-dasharray="1,5" opacity="1"/><line transform="translate(0,67)" x2="400" y2="0" stroke="#122b39" stroke-opacity="0.5" stroke-width="1" stroke-dasharray="1,5" opacity="1"/><line transform="translate(0,33)" x2="400" y2="0" stroke="#122b39" stroke-opacity="0.5" stroke-width="1" stroke-dasharray="1,5" opacity="1"/><line transform="translate(0,0)" x2="400" y2="0" stroke="#122b39" stroke-opacity="0.5" stroke-width="1" stroke-dasharray="1,5" opacity="1"/></g></g><path class="foreground" aria-hidden="true" d="" pointer-events="none" display="none"/></g></g><g class="mark-group role-axis" role="graphics-symbol" aria-roledescription="axis" aria-label="X-axis for a linear scale with values from 2021 to 2021"><g transform="translate(0.5,300.5)"><path class="background" aria-hidden="true" d="M0,0h0v0h0Z" pointer-events="none"/><g><g class="mark-rule role-axis-tick" pointer-events="none"><line transform="translate(200,0)" x2="0" y2="0" stroke="#122b39" stroke-width="1" opacity="1"/></g><g class="mark-text role-axis-label" pointer-events="none"><text text-anchor="middle" transform="translate(200,14)" font-family="Circular Std" font-size="11px" fill="#122b39" opacity="1">2021</text></g><g class="mark-rule role-axis-domain" pointer-events="none"><line transform="translate(0,0)" x2="400" y2="0" stroke="#122b39" stroke-opacity="0.5" stroke-width="1" opacity="1"/></g></g><path class="foreground" aria-hidden="true" d="" pointer-events="none" display="none"/></g></g><g class="mark-group role-axis" role="graphics-symbol" aria-roledescription="axis" aria-label="Y-axis for a linear scale with values from 0% to 18%"><g transform="translate(0.5,0.5)"><path class="background" aria-hidden="true" d="M0,0h0v0h0Z" pointer-events="none"/><g><g class="mark-rule role-axis-tick" pointer-events="none"><line transform="translate(0,300)" x2="0" y2="0" stroke="#122b39" stroke-width="1" opacity="1"/><line transform="translate(0,267)" x2="0" y2="0" stroke="#122b39" stroke-width="1" opacity="1"/><line transform="translate(0,233)" x2="0" y2="0" stroke="#122b39" stroke-width="1" opacity="1"/><line transform="translate(0,200)" x2="0" y2="0" stroke="#122b39" stroke-width="1" opacity="1"/><line transform="translate(0,167)" x2="0" y2="0" stroke="#122b39" stroke-width="1" opacity="1"/><line transform="translate(0,133)" x2="0" y2="0" stroke="#122b39" stroke-width="1" opacity="1"/><line transform="translate(0,100)" x2="0" y2="0" stroke="#122b39" stroke-width="1" opacity="1"/><line transform="translate(0,67)" x2="0" y2="0" stroke="#122b39" stroke-width="1" opacity="1"/><line transform="translate(0,33)" x2="0" y2="0" stroke="#122b39" stroke-width="1" opacity="1"/><line transform="translate(0,0)" x2="0" y2="0" stroke="#122b39" stroke-width="1" opacity="1"/></g><g class="mark-text role-axis-label" pointer-events="none"><text text-anchor="end" transform="translate(-5,303)" font-family="Circular Std" font-size="11px" fill="#122b39" opacity="1">0%</text><text text-anchor="end" transform="translate(-5,269.66666666666663)" font-family="Circular Std" font-size="11px" fill="#122b39" opacity="1">2%</text><text text-anchor="end" transform="translate(-5,236.33333333333334)" font-family="Circular Std" font-size="11px" fill="#122b39" opacity="1">4%</text><text text-anchor="end" transform="translate(-5,203.00000000000003)" font-family="Circular Std" font-size="11px" fill="#122b39" opacity="1">6%</text><text text-anchor="end" transform="translate(-5,169.66666666666669)" font-family="Circular Std" font-size="11px" fill="#122b39" opacity="1">8%</text><text text-anchor="end" transform="translate(-5,136.33333333333331)" font-family="Circular Std" font-size="11px" fill="#122b39" opacity="1">10%</text><text text-anchor="end" transform="translate(-5,103.00000000000001)" font-family="Circular Std" font-size="11px" fill="#122b39" opacity="1">12%</text><text text-anchor="end" transform="translate(-5,69.66666666666663)" font-family="Circular Std" font-size="11px" fill="#122b39" opacity="1">14%</text><text text-anchor="end" transform="translate(-5,36.333333333333314)" font-family="Circular Std" font-size="11px" fill="#122b39" opacity="1">16%</text><text text-anchor="end" transform="translate(-5,3)" font-family="Circular Std" font-size="11px" fill="#122b39" opacity="1">18%</text></g><g class="mark-rule role-axis-domain" pointer-events="none"><line transform="translate(0,300)" x2="0" y2="-300" stroke="#122b39" stroke-opacity="0.5" stroke-width="1" opacity="1"/></g></g><path class="foreground" aria-hidden="true" d="" pointer-events="none" display="none"/></g></g><g class="mark-area role-mark layer_0_marks" role="graphics-object" aria-roledescription="area mark container"><path aria-label="Time: 2021; low: 0.101383533494; high: 0.172112054524" role="graphics-symbol" aria-roledescription="area mark" d="M200,131.027L200,131.027L200,131.027L200,131.027L200,131.027L200,131.027L200,131.027L200,13.147L200,13.147L200,13.147L200,13.147L200,13.147L200,13.147L200,13.147Z" fill="rgba(24, 42, 56, 0.1)" opacity="1"/></g><g class="mark-group role-scope layer_1_pathgroup" role="graphics-object" aria-roledescription="group mark container"><g transform="translate(0,0)"><path class="background" aria-hidden="true" d="M0,0h400v300h-400Z"/><g><g class="mark-line role-mark layer_1_marks" clip-path="url(#clip8)" role="graphics-object" aria-roledescription="line mark container"><path aria-label="Time: 2021; Value: 10.138353%; LOCATION: GBR" role="graphics-symbol" aria-roledescription="line mark" d="M200,131.027Z" stroke="#122b39" stroke-width="3" opacity="1"/></g></g><path class="foreground" aria-hidden="true" d="" display="none"/></g><g transform="translate(0,0)"><path class="background" aria-hidden="true" d="M0,0h400v300h-400Z"/><g><g class="mark-line role-mark layer_1_marks" clip-path="url(#clip9)" role="graphics-object" aria-roledescription="line mark container"><path aria-label="Time: 2021; Value: 10.630223%; LOCATION: CAN" role="graphics-symbol" aria-roledescription="line mark" d="M200,122.83Z" stroke="#179fdb" stroke-width="1.5" opacity="0.8"/></g></g><path class="foreground" aria-hidden="true" d="" display="none"/></g><g transform="translate(0,0)"><path class="background" aria-hidden="true" d="M0,0h400v300h-400Z"/><g><g class="mark-line role-mark layer_1_marks" clip-path="url(#clip10)" role="graphics-object" aria-roledescription="line mark container"><path aria-label="Time: 2021; Value: 10.663247%; LOCATION: ITA" role="graphics-symbol" aria-roledescription="line mark" d="M200,122.279Z" stroke="#eb5c2e" stroke-width="1.5" opacity="0.8"/></g></g><path class="foreground" aria-hidden="true" d="" display="none"/></g><g transform="translate(0,0)"><path class="background" aria-hidden="true" d="M0,0h400v300h-400Z"/><g><g class="mark-line role-mark layer_1_marks" clip-path="url(#clip11)" role="graphics-object" aria-roledescription="line mark container"><path aria-label="Time: 2021; Value: 10.756140%; LOCATION: USA" role="graphics-symbol" aria-roledescription="line mark" d="M200,120.731Z" stroke="#179fdb" stroke-width="1.5" opacity="0.8"/></g></g><path class="foreground" aria-hidden="true" d="" display="none"/></g><g transform="translate(0,0)"><path class="background" aria-hidden="true" d="M0,0h400v300h-400Z"/><g><g class="mark-line role-mark layer_1_marks" clip-path="url(#clip12)" role="graphics-object" aria-roledescription="line mark container"><path aria-label="Time: 2021; Value: 12.010726%; LOCATION: DEU" role="graphics-symbol" aria-roledescription="line mark" d="M200,99.821Z" stroke="#e6224b" stroke-width="1.5" opacity="0.8"/></g></g><path class="foreground" aria-hidden="true" d="" display="none"/></g><g transform="translate(0,0)"><path class="background" aria-hidden="true" d="M0,0h400v300h-400Z"/><g><g class="mark-line role-mark layer_1_marks" clip-path="url(#clip13)" role="graphics-object" aria-roledescription="line mark container"><path aria-label="Time: 2021; Value: 14.273188%; LOCATION: FRA" role="graphics-symbol" aria-roledescription="line mark" d="M200,62.114Z" stroke="#f4c245" stroke-width="1.5" opacity="0.8"/></g></g><path class="foreground" aria-hidden="true" d="" display="none"/></g><g transform="translate(0,0)"><path class="background" aria-hidden="true" d="M0,0h400v300h-400Z"/><g><g class="mark-line role-mark layer_1_marks" clip-path="url(#clip14)" role="graphics-object" aria-roledescription="line mark container"><path aria-label="Time: 2021; Value: 17.211205%; LOCATION: JPN" role="graphics-symbol" aria-roledescription="line mark" d="M200,13.147Z" stroke="#36b7b4" stroke-width="1.5" opacity="0.8"/></g></g><path class="foreground" aria-hidden="true" d="" display="none"/></g></g><g class="mark-symbol role-mark layer_2_marks" role="graphics-object" aria-roledescription="symbol mark container"><path aria-label="Time: 2021; Value: 10.138353%; LOCATION: GBR" role="graphics-symbol" aria-roledescription="circle" transform="translate(200,131.02744417637496)" d="M2.739,0A2.739,2.739,0,1,1,-2.739,0A2.739,2.739,0,1,1,2.739,0" fill="#122b39" stroke-width="2" opacity="1"/><path aria-label="Time: 2021; Value: 10.630223%; LOCATION: CAN" role="graphics-symbol" aria-roledescription="circle" transform="translate(200,122.82960987160274)" d="M2.739,0A2.739,2.739,0,1,1,-2.739,0A2.739,2.739,0,1,1,2.739,0" fill="#179fdb" stroke-width="2" opacity="0.8"/><path aria-label="Time: 2021; Value: 10.663247%; LOCATION: ITA" role="graphics-symbol" aria-roledescription="circle" transform="translate(200,122.27921232414832)" d="M2.739,0A2.739,2.739,0,1,1,-2.739,0A2.739,2.739,0,1,1,2.739,0" fill="#eb5c2e" stroke-width="2" opacity="0.8"/><path aria-label="Time: 2021; Value: 10.756140%; LOCATION: USA" role="graphics-symbol" aria-roledescription="circle" transform="translate(200,120.73099599333227)" d="M2.739,0A2.739,2.739,0,1,1,-2.739,0A2.739,2.739,0,1,1,2.739,0" fill="#179fdb" stroke-width="2" opacity="0.8"/><path aria-label="Time: 2021; Value: 12.010726%; LOCATION: DEU" role="graphics-symbol" aria-roledescription="circle" transform="translate(200,99.82123684033415)" d="M2.739,0A2.739,2.739,0,1,1,-2.739,0A2.739,2.739,0,1,1,2.739,0" fill="#e6224b" stroke-width="2" opacity="0.8"/><path aria-label="Time: 2021; Value: 14.273188%; LOCATION: FRA" role="graphics-symbol" aria-roledescription="circle" transform="translate(200,62.113537267554285)" d="M2.739,0A2.739,2.739,0,1,1,-2.739,0A2.739,2.739,0,1,1,2.739,0" fill="#f4c245" stroke-width="2" opacity="0.8"/><path aria-label="Time: 2021; Value: 17.211205%; LOCATION: JPN" role="graphics-symbol" aria-roledescription="circle" transform="translate(200,13.14657579252545)" d="M2.739,0A2.739,2.739,0,1,1,-2.739,0A2.739,2.739,0,1,1,2.739,0" fill="#36b7b4" stroke-width="2" opacity="0.8"/></g><g class="mark-text role-mark layer_3_marks" role="graphics-object" aria-roledescription="text mark container"><text aria-label="Value: 10.138353%; LOCATION: GBR; Country: United Kingdom" role="graphics-symbol" aria-roledescription="text mark" text-anchor="middle" transform="translate(401,134.02744417637496)" font-family="Circular Std" font-size="11px" fill="#122b39" opacity="1">United Kingdom</text><text aria-label="Value: 10.630223%; LOCATION: CAN; Country: Canada" role="graphics-symbol" aria-roledescription="text mark" text-anchor="middle" transform="translate(401,125.82960987160274)" font-family="Circular Std" font-size="11px" fill="#179fdb" opacity="0.8">Canada</text><text aria-label="Value: 10.663247%; LOCATION: ITA; Country: Italy" role="graphics-symbol" aria-roledescription="text mark" text-anchor="middle" transform="translate(401,125.27921232414832)" font-family="Circular Std" font-size="11px" fill="#eb5c2e" opacity="0.8">Italy</text><text aria-label="Value: 10.756140%; LOCATION: USA; Country: United States" role="graphics-symbol" aria-roledescription="text mark" text-anchor="middle" transform="translate(401,123.73099599333227)" font-family="Circular Std" font-size="11px" fill="#179fdb" opacity="0.8">United States</text><text aria-label="Value: 12.010726%; LOCATION: DEU; Country: Germany" role="graphics-symbol" aria-roledescription="text mark" text-anchor="middle" transform="translate(401,102.82123684033415)" font-family="Circular Std" font-size="11px" fill="#e6224b" opacity="0.8">Germany</text><text aria-label="Value: 14.273188%; LOCATION: FRA; Country: France" role="graphics-symbol" aria-roledescription="text mark" text-anchor="middle" transform="translate(401,65.11353726755428)" font-family="Circular Std" font-size="11px" fill="#f4c245" opacity="0.8">France</text><text aria-label="Value: 17.211205%; LOCATION: JPN; Country: Japan" role="graphics-symbol" aria-roledescription="text mark" text-anchor="middle" transform="translate(401,16.14657579252545)" font-family="Circular Std" font-size="11px" fill="#36b7b4" opacity="0.8">Japan</text></g></g><path class="foreground" aria-hidden="true" d="" display="none"/></g></g></g><defs><clipPath id="clip8"><rect x="0" y="0" width="400" height="300"/></clipPath><clipPath id="clip9"><rect x="0" y="0" width="400" height="300"/></clipPath><clipPath id="clip10"><rect x="0" y="0" width="400" height="300"/></clipPath><clipPath id="clip11"><rect x="0" y="0" width="400" height="300"/></clipPath><clipPath id="clip12"><rect x="0" y="0" width="400" height="300"/></clipPath><clipPath id="clip13"><rect x="0" y="0" width="400" height="300"/></clipPath><clipPath id="clip14"><rect x="0" y="0" width="400" height="300"/></clipPath></defs></svg>