<svg xmlns="http://www.w3.org/2000/svg" xmlns:xlink="http://www.w3.org/1999/xlink" version="1.1" class="marks" width="473" height="326" viewBox="0 0 473 326"><rect width="473" height="326" fill="white"/><g fill="none" stroke-miterlimit="10" transform="translate(26,5)"><g class="mark-group role-frame root" role="graphics-object" aria-roledescription="group mark container"><g transform="translate(0,0)"><path class="background" aria-hidden="true" d="M0,0h400v300h-400Z" stroke-width="0"/><g><g class="mark-group role-axis" aria-hidden="true"><g transform="translate(0.5,300.5)"><path class="background" aria-hidden="true" d="M0,0h0v0h0Z" pointer-events="none"/><g><g class="mark-rule role-axis-grid" pointer-events="none"><line transform="translate(0,-300)" x2="0" y2="300" stroke="#ddd" stroke-opacity="0" stroke-width="1" opacity="1"/><line transform="translate(26,-300)" x2="0" y2="300" stroke="#ddd" stroke-opacity="0" stroke-width="1" opacity="1"/><line transform="translate(52,-300)" x2="0" y2="300" stroke="#ddd" stroke-opacity="0" stroke-width="1" opacity="1"/><line transform="translate(77,-300)" x2="0" y2="300" stroke="#ddd" stroke-opacity="0" stroke-width="1" opacity="1"/><line transform="translate(103,-300)" x2="0" y2="300" stroke="#ddd" stroke-opacity="0" stroke-width="1" opacity="1"/><line transform="translate(129,-300)" x2="0" y2="300" stroke="#ddd" stroke-opacity="0" stroke-width="1" opacity="1"/><line transform="translate(155,-300)" x2="0" y2="300" stroke="#ddd" stroke-opacity="0" stroke-width="1" opacity="1"/><line transform="translate(181,-300)" x2="0" y2="300" stroke="#ddd" stroke-opacity="0" stroke-width="1" opacity="1"/><line transform="translate(206,-300)" x2="0" y2="300" stroke="#ddd" stroke-opacity="0" stroke-width="1" opacity="1"/><line transform="translate(232,-300)" x2="0" y2="300" stroke="#ddd" stroke-opacity="0" stroke-width="1" opacity="1"/><line transform="translate(258,-300)" x2="0" y2="300" stroke="#ddd" stroke-opacity="0" stroke-width="1" opacity="1"/><line transform="translate(284,-300)" x2="0" y2="300" stroke="#ddd" stroke-opacity="0" stroke-width="1" opacity="1"/><line transform="translate(310,-300)" x2="0" y2="300" stroke="#ddd" stroke-opacity="0" stroke-width="1" opacity="1"/><line transform="translate(335,-300)" x2="0" y2="300" stroke="#ddd" stroke-opacity="0" stroke-width="1" opacity="1"/><line transform="translate(361,-300)" x2="0" y2="300" stroke="#ddd" stroke-opacity="0" stroke-width="1" opacity="1"/><line transform="translate(387,-300)" x2="0" y2="300" stroke="#ddd" stroke-opacity="0" stroke-width="1" opacity="1"/></g></g><path class="foreground" aria-hidden="true" d="" pointer-events="none" display="none"/></g></g><g class="mark-group role-axis" aria-hidden="true"><g transform="translate(0.5,0.5)"><path class="background" aria-hidden="true" d="M0,0h0v0h0Z" pointer-events="none"/><g><g class="mark-rule role-axis-grid" pointer-events="none"><line transform="translate(0,300)" x2="400" y2="0" stroke="#122b39" stroke-opacity="0.5" stroke-width="1" stroke-dasharray="1,5" opacity="1"/><line transform="translate(0,254)" x2="400" y2="0" stroke="#122b39" stroke-opacity="0.5" stroke-width="1" stroke-dasharray="1,5" opacity="1"/><line transform="translate(0,208)" x2="400" y2="0" stroke="#122b39" stroke-opacity="0.5" stroke-width="1" stroke-dasharray="1,5" opacity="1"/><line transform="translate(0,162)" x2="400" y2="0" stroke="#122b39" stroke-opacity="0.5" stroke-width="1" stroke-dasharray="1,5" opacity="1"/><line transform="translate(0,115)" x2="400" y2="0" stroke="#122b39" stroke-opacity="0.5" stroke-width="1" stroke-dasharray="1,5" opacity="1"/><line transform="translate(0,69)" x2="400" y2="0" stroke="#122b39" stroke-opacity="0.5" stroke-width="1" stroke-dasharray="1,5" opacity="1"/><line transform="translate(0,23)" x2="400" y2="0" stroke="#122b39" stroke-opacity="0.5" stroke-width="1" stroke-dasharray="1,5" opacity="1"/></g></g><path class="foreground" aria-hidden="true" d="" pointer-events="none" display="none"/></g></g><g class="mark-group role-axis" role="graphics-symbol" aria-roledescription="axis" aria-label="X-axis for a linear scale with values from 1990 to 2021"><g transform="translate(0.5,300.5)"><path class="background" aria-hidden="true" d="M0,0h0v0h0Z" pointer-events="none"/><g><g class="mark-rule role-axis-tick" pointer-events="none"><line transform="translate(0,0)" x2="0" y2="0" stroke="#122b39" stroke-width="1" opacity="1"/><line transform="translate(26,0)" x2="0" y2="0" stroke="#122b39" stroke-width="1" opacity="1"/><line transform="translate(52,0)" x2="0" y2="0" stroke="#122b39" stroke-width="1" opacity="1"/><line transform="translate(77,0)" x2="0" y2="0" stroke="#122b39" stroke-width="1" opacity="1"/><line transform="translate(103,0)" x2="0" y2="0" stroke="#122b39" stroke-width="1" opacity="1"/><line transform="translate(129,0)" x2="0" y2="0" stroke="#122b39" stroke-width="1" opacity="1"/><line transform="translate(155,0)" x2="0" y2="0" stroke="#122b39" stroke-width="1" opacity="1"/><line transform="translate(181,0)" x2="0" y2="0" stroke="#122b39" stroke-width="1" opacity="1"/><line transform="translate(206,0)" x2="0" y2="0" stroke="#122b39" stroke-width="1" opacity="1"/><line transform="translate(232,0)" x2="0" y2="0" stroke="#122b39" stroke-width="1" opacity="1"/><line transform="translate(258,0)" x2="0" y2="0" stroke="#122b39" stroke-width="1" opacity="1"/><line transform="translate(284,0)" x2="0" y2="0" stroke="#122b39" stroke-width="1" opacity="1"/><line transform="translate(310,0)" x2="0" y2="0" stroke="#122b39" stroke-width="1" opacity="1"/><line transform="translate(335,0)" x2="0" y2="0" stroke="#122b39" stroke-width="1" opacity="1"/><line transform="translate(361,0)" x2="0" y2="0" stroke="#122b39" stroke-width="1" opacity="1"/><line transform="translate(387,0)" x2="0" y2="0" stroke="#122b39" stroke-width="1" opacity="1"/></g><g class="mark-text role-axis-label" pointer-events="none"><text text-anchor="middle" transform="translate(0,14)" font-family="Circular Std" font-size="11px" fill="#122b39" opacity="1">1990</text><text text-anchor="middle" transform="translate(25.806451612903224,14)" font-family="Circular Std" font-size="11px" fill="#122b39" opacity="0">1992</text><text text-anchor="middle" transform="translate(51.61290322580645,14)" font-family="Circular Std" font-size="11px" fill="#122b39" opacity="1">1994</text><text text-anchor="middle" transform="translate(77.41935483870968,14)" font-family="Circular Std" font-size="11px" fill="#122b39" opacity="0">1996</text><text text-anchor="middle" transform="translate(103.2258064516129,14)" font-family="Circular Std" font-size="11px" fill="#122b39" opacity="1">1998</text><text text-anchor="middle" transform="translate(129.03225806451613,14)" font-family="Circular Std" font-size="11px" fill="#122b39" opacity="0">2000</text><text text-anchor="middle" transform="translate(154.83870967741936,14)" font-family="Circular Std" font-size="11px" fill="#122b39" opacity="1">2002</text><text text-anchor="middle" transform="translate(180.64516129032256,14)" font-family="Circular Std" font-size="11px" fill="#122b39" opacity="0">2004</text><text text-anchor="middle" transform="translate(206.4516129032258,14)" font-family="Circular Std" font-size="11px" fill="#122b39" opacity="1">2006</text><text text-anchor="middle" transform="translate(232.25806451612905,14)" font-family="Circular Std" font-size="11px" fill="#122b39" opacity="0">2008</text><text text-anchor="middle" transform="translate(258.06451612903226,14)" font-family="Circular Std" font-size="11px" fill="#122b39" opacity="1">2010</text><text text-anchor="middle" transform="translate(283.8709677419355,14)" font-family="Circular Std" font-size="11px" fill="#122b39" opacity="0">2012</text><text text-anchor="middle" transform="translate(309.6774193548387,14)" font-family="Circular Std" font-size="11px" fill="#122b39" opacity="1">2014</text><text text-anchor="middle" transform="translate(335.48387096774195,14)" font-family="Circular Std" font-size="11px" fill="#122b39" opacity="0">2016</text><text text-anchor="middle" transform="translate(361.2903225806451,14)" font-family="Circular Std" font-size="11px" fill="#122b39" opacity="1">2018</text><text text-anchor="middle" transform="translate(387.0967741935484,14)" font-family="Circular Std" font-size="11px" fill="#122b39" opacity="0">2020</text></g><g class="mark-rule role-axis-domain" pointer-events="none"><line transform="translate(0,0)" x2="400" y2="0" stroke="#122b39" stroke-opacity="0.5" stroke-width="1" opacity="1"/></g></g><path class="foreground" aria-hidden="true" d="" pointer-events="none" display="none"/></g></g><g class="mark-group role-axis" role="graphics-symbol" aria-roledescription="axis" aria-label="Y-axis for a linear scale with values from 0% to 7%"><g transform="translate(0.5,0.5)"><path class="background" aria-hidden="true" d="M0,0h0v0h0Z" pointer-events="none"/><g><g class="mark-rule role-axis-tick" pointer-events="none"><line transform="translate(0,300)" x2="0" y2="0" stroke="#122b39" stroke-width="1" opacity="1"/><line transform="translate(0,254)" x2="0" y2="0" stroke="#122b39" stroke-width="1" opacity="1"/><line transform="translate(0,208)" x2="0" y2="0" stroke="#122b39" stroke-width="1" opacity="1"/><line transform="translate(0,162)" x2="0" y2="0" stroke="#122b39" stroke-width="1" opacity="1"/><line transform="translate(0,115)" x2="0" y2="0" stroke="#122b39" stroke-width="1" opacity="1"/><line transform="translate(0,69)" x2="0" y2="0" stroke="#122b39" stroke-width="1" opacity="1"/><line transform="translate(0,23)" x2="0" y2="0" stroke="#122b39" stroke-width="1" opacity="1"/></g><g class="mark-text role-axis-label" pointer-events="none"><text text-anchor="end" transform="translate(-5,303)" font-family="Circular Std" font-size="11px" fill="#122b39" opacity="1">0%</text><text text-anchor="end" transform="translate(-5,256.8461538461538)" font-family="Circular Std" font-size="11px" fill="#122b39" opacity="1">1%</text><text text-anchor="end" transform="translate(-5,210.69230769230768)" font-family="Circular Std" font-size="11px" fill="#122b39" opacity="1">2%</text><text text-anchor="end" transform="translate(-5,164.53846153846158)" font-family="Circular Std" font-size="11px" fill="#122b39" opacity="1">3%</text><text text-anchor="end" transform="translate(-5,118.38461538461537)" font-family="Circular Std" font-size="11px" fill="#122b39" opacity="1">4%</text><text text-anchor="end" transform="translate(-5,72.23076923076921)" font-family="Circular Std" font-size="11px" fill="#122b39" opacity="1">5%</text><text text-anchor="end" transform="translate(-5,26.076923076923094)" font-family="Circular Std" font-size="11px" fill="#122b39" opacity="1">6%</text></g><g class="mark-rule role-axis-domain" pointer-events="none"><line transform="translate(0,300)" x2="0" y2="-300" stroke="#122b39" stroke-opacity="0.5" stroke-width="1" opacity="1"/></g></g><path class="foreground" aria-hidden="true" d="" pointer-events="none" display="none"/></g></g><g class="mark-area role-mark layer_0_marks" role="graphics-object" aria-roledescription="area mark container"><path aria-label="Time: 1990; low: 0.0375887308916; high: 0.0461451136637" role="graphics-symbol" aria-roledescription="area mark" d="M0,126.514L0,126.514L0,126.514L12.903,123.993L12.903,123.993L12.903,123.993L25.806,128.628L25.806,128.628L25.806,128.628L38.71,139.798L38.71,139.798L38.71,139.798L51.613,141.999L51.613,141.999L51.613,141.999L51.613,141.999L64.516,202.615L64.516,202.615L64.516,202.615L64.516,202.615L64.516,202.615L64.516,202.615L64.516,202.615L77.419,218.591L77.419,218.591L77.419,218.591L77.419,218.591L77.419,218.591L77.419,218.591L77.419,218.591L90.323,216.862L90.323,216.862L90.323,216.862L90.323,216.862L90.323,216.862L90.323,216.862L90.323,216.862L103.226,213.641L103.226,213.641L103.226,213.641L103.226,213.641L103.226,213.641L103.226,213.641L103.226,213.641L116.129,217.881L116.129,217.881L116.129,217.881L116.129,217.881L116.129,217.881L116.129,217.881L116.129,217.881L129.032,220.397L129.032,220.397L129.032,220.397L129.032,220.397L129.032,220.397L129.032,220.397L129.032,220.397L141.935,207.433L141.935,207.433L141.935,207.433L141.935,207.433L141.935,207.433L141.935,207.433L141.935,207.433L154.839,200.827L154.839,200.827L154.839,200.827L154.839,200.827L154.839,200.827L154.839,200.827L154.839,200.827L167.742,202.28L167.742,202.28L167.742,202.28L167.742,202.28L167.742,202.28L167.742,202.28L167.742,202.28L180.645,210.416L180.645,210.416L180.645,210.416L180.645,210.416L180.645,210.416L180.645,210.416L180.645,210.416L193.548,228.658L193.548,228.658L193.548,228.658L193.548,228.658L193.548,228.658L193.548,228.658L193.548,228.658L206.452,205.567L206.452,205.567L206.452,205.567L206.452,205.567L206.452,205.567L206.452,205.567L206.452,205.567L219.355,208.976L219.355,208.976L219.355,208.976L219.355,208.976L219.355,208.976L219.355,208.976L219.355,208.976L232.258,202.525L232.258,202.525L232.258,202.525L232.258,202.525L232.258,202.525L232.258,202.525L232.258,202.525L245.161,190.285L245.161,190.285L245.161,190.285L245.161,190.285L245.161,190.285L245.161,190.285L245.161,190.285L258.065,191.192L258.065,191.192L258.065,191.192L258.065,191.192L258.065,191.192L258.065,191.192L258.065,191.192L270.968,192.856L270.968,192.856L270.968,192.856L270.968,192.856L270.968,192.856L270.968,192.856L270.968,192.856L283.871,197.779L283.871,197.779L283.871,197.779L283.871,197.779L283.871,197.779L283.871,197.779L283.871,197.779L296.774,199.438L296.774,199.438L296.774,199.438L296.774,199.438L296.774,199.438L296.774,199.438L296.774,199.438L309.677,203.202L309.677,203.202L309.677,203.202L309.677,203.202L309.677,203.202L309.677,203.202L309.677,203.202L322.581,201.224L322.581,201.224L322.581,201.224L322.581,201.224L322.581,201.224L322.581,201.224L322.581,201.224L335.484,198.967L335.484,198.967L335.484,198.967L335.484,198.967L335.484,198.967L335.484,198.967L335.484,198.967L348.387,198.273L348.387,198.273L348.387,198.273L348.387,198.273L348.387,198.273L348.387,198.273L348.387,198.273L361.29,201.6L361.29,201.6L361.29,201.6L361.29,201.6L361.29,201.6L361.29,201.6L361.29,201.6L374.194,193.468L374.194,193.468L374.194,193.468L374.194,193.468L374.194,193.468L374.194,193.468L374.194,193.468L387.097,180.32L387.097,180.32L387.097,180.32L387.097,180.32L387.097,180.32L387.097,180.32L387.097,180.32L400,181.446L400,181.446L400,181.446L400,181.446L400,181.446L400,181.446L400,181.446L400,105.588L400,105.588L400,105.588L400,105.588L400,105.588L400,105.588L400,105.588L387.097,103.142L387.097,103.142L387.097,103.142L387.097,103.142L387.097,103.142L387.097,103.142L387.097,103.142L374.194,119.146L374.194,119.146L374.194,119.146L374.194,119.146L374.194,119.146L374.194,119.146L374.194,119.146L361.29,120.209L361.29,120.209L361.29,120.209L361.29,120.209L361.29,120.209L361.29,120.209L361.29,120.209L348.387,120.886L348.387,120.886L348.387,120.886L348.387,120.886L348.387,120.886L348.387,120.886L348.387,120.886L335.484,124.88L335.484,124.88L335.484,124.88L335.484,124.88L335.484,124.88L335.484,124.88L335.484,124.88L322.581,129.753L322.581,129.753L322.581,129.753L322.581,129.753L322.581,129.753L322.581,129.753L322.581,129.753L309.677,116.38L309.677,116.38L309.677,116.38L309.677,116.38L309.677,116.38L309.677,116.38L309.677,116.38L296.774,116.24L296.774,116.24L296.774,116.24L296.774,116.24L296.774,116.24L296.774,116.24L296.774,116.24L283.871,107.673L283.871,107.673L283.871,107.673L283.871,107.673L283.871,107.673L283.871,107.673L283.871,107.673L270.968,100.903L270.968,100.903L270.968,100.903L270.968,100.903L270.968,100.903L270.968,100.903L270.968,100.903L258.065,77.047L258.065,77.047L258.065,77.047L258.065,77.047L258.065,77.047L258.065,77.047L258.065,77.047L245.161,88.301L245.161,88.301L245.161,88.301L245.161,88.301L245.161,88.301L245.161,88.301L245.161,88.301L232.258,114.921L232.258,114.921L232.258,114.921L232.258,114.921L232.258,114.921L232.258,114.921L232.258,114.921L219.355,117.853L219.355,117.853L219.355,117.853L219.355,117.853L219.355,117.853L219.355,117.853L219.355,117.853L206.452,118.558L206.452,118.558L206.452,118.558L206.452,118.558L206.452,118.558L206.452,118.558L206.452,118.558L193.548,114.737L193.548,114.737L193.548,114.737L193.548,114.737L193.548,114.737L193.548,114.737L193.548,114.737L180.645,106.637L180.645,106.637L180.645,106.637L180.645,106.637L180.645,106.637L180.645,106.637L180.645,106.637L167.742,83.987L167.742,83.987L167.742,83.987L167.742,83.987L167.742,83.987L167.742,83.987L167.742,83.987L154.839,63.428L154.839,63.428L154.839,63.428L154.839,63.428L154.839,63.428L154.839,63.428L154.839,63.428L141.935,51.426L141.935,51.426L141.935,51.426L141.935,51.426L141.935,51.426L141.935,51.426L141.935,51.426L129.032,47.085L129.032,47.085L129.032,47.085L129.032,47.085L129.032,47.085L129.032,47.085L129.032,47.085L116.129,14.369L116.129,14.369L116.129,14.369L116.129,14.369L116.129,14.369L116.129,14.369L116.129,14.369L103.226,32.753L103.226,32.753L103.226,32.753L103.226,32.753L103.226,32.753L103.226,32.753L103.226,32.753L90.323,26.173L90.323,26.173L90.323,26.173L90.323,26.173L90.323,26.173L90.323,26.173L90.323,26.173L77.419,0.352L77.419,0.352L77.419,0.352L77.419,0.352L77.419,0.352L77.419,0.352L77.419,0.352L64.516,10.894L64.516,10.894L64.516,10.894L64.516,10.894L64.516,10.894L64.516,10.894L64.516,10.894L51.613,1.891L51.613,1.891L51.613,1.891L51.613,1.891L38.71,88.894L38.71,88.894L38.71,88.894L25.806,82.029L25.806,82.029L25.806,82.029L12.903,80.202L12.903,80.202L12.903,80.202L0,87.023L0,87.023L0,87.023Z" fill="rgba(24, 42, 56, 0.1)" opacity="0.8"/></g><g class="mark-group role-scope layer_1_pathgroup" role="graphics-object" aria-roledescription="group mark container"><g transform="translate(0,0)"><path class="background" aria-hidden="true" d="M0,0h400v300h-400Z"/><g><g class="mark-line role-mark layer_1_marks" clip-path="url(#clip22)" role="graphics-object" aria-roledescription="line mark container"><path aria-label="Time: 1990; Value: 3.758873%; LOCATION: CAN" role="graphics-symbol" aria-roledescription="line mark" d="M0,126.514L12.903,123.993L25.806,128.628L38.71,139.798L51.613,141.999L64.516,144.665L77.419,161.345L90.323,165.125L103.226,167.66L116.129,174.954L129.032,163.751L141.935,159.479L154.839,151.752L167.742,151.844L180.645,148.653L193.548,140.503L206.452,135.323L219.355,127.17L232.258,129.271L245.161,88.301L258.065,77.047L270.968,100.903L283.871,107.673L296.774,122.035L309.677,145.059L322.581,129.753L335.484,124.88L348.387,120.886L361.29,120.209L374.194,134.732L387.097,109.944L400,139.482" stroke="#179fdb" stroke-width="1.5" opacity="0.8"/></g></g><path class="foreground" aria-hidden="true" d="" display="none"/></g><g transform="translate(0,0)"><path class="background" aria-hidden="true" d="M0,0h400v300h-400Z"/><g><g class="mark-line role-mark layer_1_marks" clip-path="url(#clip23)" role="graphics-object" aria-roledescription="line mark container"><path aria-label="Time: 1990; Value: 4.614511%; LOCATION: FRA" role="graphics-symbol" aria-roledescription="line mark" d="M0,87.023L12.903,80.202L25.806,82.029L38.71,88.894L51.613,93.592L64.516,106.122L77.419,108.575L90.323,122.711L103.226,128.565L116.129,124.579L129.032,118.243L141.935,122.226L154.839,125.981L167.742,119.844L180.645,116.876L193.548,114.737L206.452,118.558L219.355,117.853L232.258,117.826L245.161,103.51L258.065,108.157L270.968,117.052L283.871,113.209L296.774,116.24L309.677,129.024L322.581,142.799L335.484,144.905L348.387,146.426L361.29,143.031L374.194,131.454L387.097,130.795L400,133.845" stroke="#f4c245" stroke-width="1.5" opacity="0.8"/></g></g><path class="foreground" aria-hidden="true" d="" display="none"/></g><g transform="translate(0,0)"><path class="background" aria-hidden="true" d="M0,0h400v300h-400Z"/><g><g class="mark-line role-mark layer_1_marks" clip-path="url(#clip24)" role="graphics-object" aria-roledescription="line mark container"><path aria-label="Time: 1990; Value: 4.593410%; LOCATION: USA" role="graphics-symbol" aria-roledescription="line mark" d="M0,87.996L12.903,92.574L25.806,103.557L38.71,115.869L51.613,123.533L64.516,124.204L77.419,126.975L90.323,134.21L103.226,135.479L116.129,134.351L129.032,134.411L141.935,130.21L154.839,122.974L167.742,123.821L180.645,126.367L193.548,128.502L206.452,126.287L219.355,121.698L232.258,114.921L245.161,107.224L258.065,114.205L270.968,122.36L283.871,133.799L296.774,145.316L309.677,151.194L322.581,151.664L335.484,151.194L348.387,150.554L361.29,149.13L374.194,146.775L387.097,135.664L400,148.85" stroke="#179fdb" stroke-width="1.5" opacity="0.8"/></g></g><path class="foreground" aria-hidden="true" d="" display="none"/></g><g transform="translate(0,0)"><path class="background" aria-hidden="true" d="M0,0h400v300h-400Z"/><g><g class="mark-line role-mark layer_1_marks" clip-path="url(#clip25)" role="graphics-object" aria-roledescription="line mark container"><path aria-label="Time: 1995; Value: 2.110008%; LOCATION: GBR" role="graphics-symbol" aria-roledescription="line mark" d="M64.516,202.615L77.419,218.591L90.323,216.862L103.226,213.641L116.129,217.881L129.032,220.397L141.935,207.433L154.839,200.827L167.742,196.959L180.645,180.71L193.548,228.658L206.452,181.558L219.355,180.952L232.258,160.116L245.161,144.377L258.065,152.011L270.968,166.643L283.871,178.127L296.774,187.118L309.677,175.617L322.581,175.575L335.484,180.716L348.387,172.785L361.29,174.669L374.194,171.618L387.097,155.05L400,155.093" stroke="#122b39" stroke-width="3" opacity="1"/></g></g><path class="foreground" aria-hidden="true" d="" display="none"/></g><g transform="translate(0,0)"><path class="background" aria-hidden="true" d="M0,0h400v300h-400Z"/><g><g class="mark-line role-mark layer_1_marks" clip-path="url(#clip26)" role="graphics-object" aria-roledescription="line mark container"><path aria-label="Time: 1995; Value: 2.597235%; LOCATION: ITA" role="graphics-symbol" aria-roledescription="line mark" d="M64.516,180.128L77.419,176.137L90.323,175.637L103.226,171.349L116.129,166.359L129.032,169.046L141.935,160.877L154.839,184.573L167.742,157.176L180.645,153.357L193.548,151.672L206.452,152.941L219.355,153.502L232.258,154.451L245.161,130.985L258.065,156.945L270.968,165.454L283.871,178.214L296.774,184.025L309.677,192.798L322.581,189.132L335.484,193.795L348.387,198.273L361.29,201.6L374.194,193.468L387.097,180.32L400,167.41" stroke="#eb5c2e" stroke-width="1.5" opacity="0.8"/></g></g><path class="foreground" aria-hidden="true" d="" display="none"/></g><g transform="translate(0,0)"><path class="background" aria-hidden="true" d="M0,0h400v300h-400Z"/><g><g class="mark-line role-mark layer_1_marks" clip-path="url(#clip27)" role="graphics-object" aria-roledescription="line mark container"><path aria-label="Time: 1994; Value: 6.459025%; LOCATION: JPN" role="graphics-symbol" aria-roledescription="line mark" d="M51.613,1.891L64.516,10.894L77.419,0.352L90.323,26.173L103.226,32.753L116.129,14.369L129.032,47.085L141.935,51.426L154.839,63.428L167.742,83.987L180.645,106.637L193.548,116.344L206.452,126.217L219.355,136.008L232.258,138.318L245.161,119.528L258.065,126.717L270.968,132.836L283.871,132.769L296.774,121.523L309.677,116.38L322.581,131.032L335.484,130.98L348.387,130.157L361.29,127.077L374.194,119.146L387.097,103.142L400,105.588" stroke="#36b7b4" stroke-width="1.5" opacity="0.8"/></g></g><path class="foreground" aria-hidden="true" d="" display="none"/></g><g transform="translate(0,0)"><path class="background" aria-hidden="true" d="M0,0h400v300h-400Z"/><g><g class="mark-line role-mark layer_1_marks" clip-path="url(#clip28)" role="graphics-object" aria-roledescription="line mark container"><path aria-label="Time: 1995; Value: 2.631412%; LOCATION: DEU" role="graphics-symbol" aria-roledescription="line mark" d="M64.516,178.55L77.419,182.825L90.323,191.866L103.226,193.454L116.129,189.801L129.032,192.767L141.935,195.487L154.839,198.713L167.742,202.28L180.645,210.416L193.548,211.071L206.452,205.567L219.355,208.976L232.258,202.525L245.161,190.285L258.065,191.192L270.968,192.856L283.871,197.779L296.774,199.438L309.677,203.202L322.581,201.224L335.484,198.967L348.387,197.113L361.29,190.725L374.194,188.979L387.097,176.243L400,181.446" stroke="#e6224b" stroke-width="1.5" opacity="0.8"/></g></g><path class="foreground" aria-hidden="true" d="" display="none"/></g></g><g class="mark-symbol role-mark layer_2_marks" role="graphics-object" aria-roledescription="symbol mark container"><path aria-label="Time: 2021; Value: 3.477900%; LOCATION: CAN" role="graphics-symbol" aria-roledescription="circle" transform="translate(400,139.4815465458393)" d="M2.739,0A2.739,2.739,0,1,1,-2.739,0A2.739,2.739,0,1,1,2.739,0" fill="#179fdb" stroke-width="2" opacity="0.8"/><path aria-label="Time: 2021; Value: 3.139646%; LOCATION: GBR" role="graphics-symbol" aria-roledescription="circle" transform="translate(400,155.0932514801906)" d="M2.739,0A2.739,2.739,0,1,1,-2.739,0A2.739,2.739,0,1,1,2.739,0" fill="#122b39" stroke-width="2" opacity="1"/><path aria-label="Time: 2021; Value: 2.872783%; LOCATION: ITA" role="graphics-symbol" aria-roledescription="circle" transform="translate(400,167.41002299381194)" d="M2.739,0A2.739,2.739,0,1,1,-2.739,0A2.739,2.739,0,1,1,2.739,0" fill="#eb5c2e" stroke-width="2" opacity="0.8"/><path aria-label="Time: 2021; Value: 3.600030%; LOCATION: FRA" role="graphics-symbol" aria-roledescription="circle" transform="translate(400,133.84476661337447)" d="M2.739,0A2.739,2.739,0,1,1,-2.739,0A2.739,2.739,0,1,1,2.739,0" fill="#f4c245" stroke-width="2" opacity="0.8"/><path aria-label="Time: 2021; Value: 2.568660%; LOCATION: DEU" role="graphics-symbol" aria-roledescription="circle" transform="translate(400,181.44645025204903)" d="M2.739,0A2.739,2.739,0,1,1,-2.739,0A2.739,2.739,0,1,1,2.739,0" fill="#e6224b" stroke-width="2" opacity="0.8"/><path aria-label="Time: 2021; Value: 3.274922%; LOCATION: USA" role="graphics-symbol" aria-roledescription="circle" transform="translate(400,148.84977197321126)" d="M2.739,0A2.739,2.739,0,1,1,-2.739,0A2.739,2.739,0,1,1,2.739,0" fill="#179fdb" stroke-width="2" opacity="0.8"/><path aria-label="Time: 2021; Value: 4.212263%; LOCATION: JPN" role="graphics-symbol" aria-roledescription="circle" transform="translate(400,105.58786972695053)" d="M2.739,0A2.739,2.739,0,1,1,-2.739,0A2.739,2.739,0,1,1,2.739,0" fill="#36b7b4" stroke-width="2" opacity="0.8"/></g><g class="mark-text role-mark layer_3_marks" role="graphics-object" aria-roledescription="text mark container"><text aria-label="Value: 3.477900%; LOCATION: CAN; Country: Canada" role="graphics-symbol" aria-roledescription="text mark" text-anchor="middle" transform="translate(401,142.4815465458393)" font-family="Circular Std" font-size="11px" fill="#179fdb" opacity="0.8">Canada</text><text aria-label="Value: 3.139646%; LOCATION: GBR; Country: United Kingdom" role="graphics-symbol" aria-roledescription="text mark" text-anchor="middle" transform="translate(401,158.0932514801906)" font-family="Circular Std" font-size="11px" fill="#122b39" opacity="1">United Kingdom</text><text aria-label="Value: 2.872783%; LOCATION: ITA; Country: Italy" role="graphics-symbol" aria-roledescription="text mark" text-anchor="middle" transform="translate(401,170.41002299381194)" font-family="Circular Std" font-size="11px" fill="#eb5c2e" opacity="0.8">Italy</text><text aria-label="Value: 3.600030%; LOCATION: FRA; Country: France" role="graphics-symbol" aria-roledescription="text mark" text-anchor="middle" transform="translate(401,136.84476661337447)" font-family="Circular Std" font-size="11px" fill="#f4c245" opacity="0.8">France</text><text aria-label="Value: 2.568660%; LOCATION: DEU; Country: Germany" role="graphics-symbol" aria-roledescription="text mark" text-anchor="middle" transform="translate(401,184.44645025204903)" font-family="Circular Std" font-size="11px" fill="#e6224b" opacity="0.8">Germany</text><text aria-label="Value: 3.274922%; LOCATION: USA; Country: United States" role="graphics-symbol" aria-roledescription="text mark" text-anchor="middle" transform="translate(401,151.84977197321126)" font-family="Circular Std" font-size="11px" fill="#179fdb" opacity="0.8">United States</text><text aria-label="Value: 4.212263%; LOCATION: JPN; Country: Japan" role="graphics-symbol" aria-roledescription="text mark" text-anchor="middle" transform="translate(401,108.58786972695053)" font-family="Circular Std" font-size="11px" fill="#36b7b4" opacity="0.8">Japan</text></g></g><path class="foreground" aria-hidden="true" d="" display="none"/></g></g></g><defs><clipPath id="clip22"><rect x="0" y="0" width="400" height="300"/></clipPath><clipPath id="clip23"><rect x="0" y="0" width="400" height="300"/></clipPath><clipPath id="clip24"><rect x="0" y="0" width="400" height="300"/></clipPath><clipPath id="clip25"><rect x="0" y="0" width="400" height="300"/></clipPath><clipPath id="clip26"><rect x="0" y="0" width="400" height="300"/></clipPath><clipPath id="clip27"><rect x="0" y="0" width="400" height="300"/></clipPath><clipPath id="clip28"><rect x="0" y="0" width="400" height="300"/></clipPath></defs></svg>