<svg xmlns="http://www.w3.org/2000/svg" xmlns:xlink="http://www.w3.org/1999/xlink" version="1.1" class="marks" width="478" height="332" viewBox="0 0 478 332"><rect width="478" height="332" fill="white"/><g fill="none" stroke-miterlimit="10" transform="translate(31,11)"><g class="mark-group role-frame root" role="graphics-object" aria-roledescription="group mark container"><g transform="translate(0,0)"><path class="background" aria-hidden="true" d="M0,0h400v300h-400Z" stroke-width="0"/><g><g class="mark-group role-axis" aria-hidden="true"><g transform="translate(0.5,300.5)"><path class="background" aria-hidden="true" d="M0,0h0v0h0Z" pointer-events="none"/><g><g class="mark-rule role-axis-grid" pointer-events="none"><line transform="translate(0,-300)" x2="0" y2="300" stroke="#ddd" stroke-opacity="0" stroke-width="1" opacity="1"/><line transform="translate(26,-300)" x2="0" y2="300" stroke="#ddd" stroke-opacity="0" stroke-width="1" opacity="1"/><line transform="translate(52,-300)" x2="0" y2="300" stroke="#ddd" stroke-opacity="0" stroke-width="1" opacity="1"/><line transform="translate(77,-300)" x2="0" y2="300" stroke="#ddd" stroke-opacity="0" stroke-width="1" opacity="1"/><line transform="translate(103,-300)" x2="0" y2="300" stroke="#ddd" stroke-opacity="0" stroke-width="1" opacity="1"/><line transform="translate(129,-300)" x2="0" y2="300" stroke="#ddd" stroke-opacity="0" stroke-width="1" opacity="1"/><line transform="translate(155,-300)" x2="0" y2="300" stroke="#ddd" stroke-opacity="0" stroke-width="1" opacity="1"/><line transform="translate(181,-300)" x2="0" y2="300" stroke="#ddd" stroke-opacity="0" stroke-width="1" opacity="1"/><line transform="translate(206,-300)" x2="0" y2="300" stroke="#ddd" stroke-opacity="0" stroke-width="1" opacity="1"/><line transform="translate(232,-300)" x2="0" y2="300" stroke="#ddd" stroke-opacity="0" stroke-width="1" opacity="1"/><line transform="translate(258,-300)" x2="0" y2="300" stroke="#ddd" stroke-opacity="0" stroke-width="1" opacity="1"/><line transform="translate(284,-300)" x2="0" y2="300" stroke="#ddd" stroke-opacity="0" stroke-width="1" opacity="1"/><line transform="translate(310,-300)" x2="0" y2="300" stroke="#ddd" stroke-opacity="0" stroke-width="1" opacity="1"/><line transform="translate(335,-300)" x2="0" y2="300" stroke="#ddd" stroke-opacity="0" stroke-width="1" opacity="1"/><line transform="translate(361,-300)" x2="0" y2="300" stroke="#ddd" stroke-opacity="0" stroke-width="1" opacity="1"/><line transform="translate(387,-300)" x2="0" y2="300" stroke="#ddd" stroke-opacity="0" stroke-width="1" opacity="1"/></g></g><path class="foreground" aria-hidden="true" d="" pointer-events="none" display="none"/></g></g><g class="mark-group role-axis" aria-hidden="true"><g transform="translate(0.5,0.5)"><path class="background" aria-hidden="true" d="M0,0h0v0h0Z" pointer-events="none"/><g><g class="mark-rule role-axis-grid" pointer-events="none"><line transform="translate(0,300)" x2="400" y2="0" stroke="#122b39" stroke-opacity="0.5" stroke-width="1" stroke-dasharray="1,5" opacity="1"/><line transform="translate(0,270)" x2="400" y2="0" stroke="#122b39" stroke-opacity="0.5" stroke-width="1" stroke-dasharray="1,5" opacity="1"/><line transform="translate(0,240)" x2="400" y2="0" stroke="#122b39" stroke-opacity="0.5" stroke-width="1" stroke-dasharray="1,5" opacity="1"/><line transform="translate(0,210)" x2="400" y2="0" stroke="#122b39" stroke-opacity="0.5" stroke-width="1" stroke-dasharray="1,5" opacity="1"/><line transform="translate(0,180)" x2="400" y2="0" stroke="#122b39" stroke-opacity="0.5" stroke-width="1" stroke-dasharray="1,5" opacity="1"/><line transform="translate(0,150)" x2="400" y2="0" stroke="#122b39" stroke-opacity="0.5" stroke-width="1" stroke-dasharray="1,5" opacity="1"/><line transform="translate(0,120)" x2="400" y2="0" stroke="#122b39" stroke-opacity="0.5" stroke-width="1" stroke-dasharray="1,5" opacity="1"/><line transform="translate(0,90)" x2="400" y2="0" stroke="#122b39" stroke-opacity="0.5" stroke-width="1" stroke-dasharray="1,5" opacity="1"/><line transform="translate(0,60)" x2="400" y2="0" stroke="#122b39" stroke-opacity="0.5" stroke-width="1" stroke-dasharray="1,5" opacity="1"/><line transform="translate(0,30)" x2="400" y2="0" stroke="#122b39" stroke-opacity="0.5" stroke-width="1" stroke-dasharray="1,5" opacity="1"/><line transform="translate(0,0)" x2="400" y2="0" stroke="#122b39" stroke-opacity="0.5" stroke-width="1" stroke-dasharray="1,5" opacity="1"/></g></g><path class="foreground" aria-hidden="true" d="" pointer-events="none" display="none"/></g></g><g class="mark-group role-axis" role="graphics-symbol" aria-roledescription="axis" aria-label="X-axis for a linear scale with values from 1990 to 2021"><g transform="translate(0.5,300.5)"><path class="background" aria-hidden="true" d="M0,0h0v0h0Z" pointer-events="none"/><g><g class="mark-rule role-axis-tick" pointer-events="none"><line transform="translate(0,0)" x2="0" y2="0" stroke="#122b39" stroke-width="1" opacity="1"/><line transform="translate(26,0)" x2="0" y2="0" stroke="#122b39" stroke-width="1" opacity="1"/><line transform="translate(52,0)" x2="0" y2="0" stroke="#122b39" stroke-width="1" opacity="1"/><line transform="translate(77,0)" x2="0" y2="0" stroke="#122b39" stroke-width="1" opacity="1"/><line transform="translate(103,0)" x2="0" y2="0" stroke="#122b39" stroke-width="1" opacity="1"/><line transform="translate(129,0)" x2="0" y2="0" stroke="#122b39" stroke-width="1" opacity="1"/><line transform="translate(155,0)" x2="0" y2="0" stroke="#122b39" stroke-width="1" opacity="1"/><line transform="translate(181,0)" x2="0" y2="0" stroke="#122b39" stroke-width="1" opacity="1"/><line transform="translate(206,0)" x2="0" y2="0" stroke="#122b39" stroke-width="1" opacity="1"/><line transform="translate(232,0)" x2="0" y2="0" stroke="#122b39" stroke-width="1" opacity="1"/><line transform="translate(258,0)" x2="0" y2="0" stroke="#122b39" stroke-width="1" opacity="1"/><line transform="translate(284,0)" x2="0" y2="0" stroke="#122b39" stroke-width="1" opacity="1"/><line transform="translate(310,0)" x2="0" y2="0" stroke="#122b39" stroke-width="1" opacity="1"/><line transform="translate(335,0)" x2="0" y2="0" stroke="#122b39" stroke-width="1" opacity="1"/><line transform="translate(361,0)" x2="0" y2="0" stroke="#122b39" stroke-width="1" opacity="1"/><line transform="translate(387,0)" x2="0" y2="0" stroke="#122b39" stroke-width="1" opacity="1"/></g><g class="mark-text role-axis-label" pointer-events="none"><text text-anchor="middle" transform="translate(0,14)" font-family="Circular Std" font-size="11px" fill="#122b39" opacity="1">1990</text><text text-anchor="middle" transform="translate(25.806451612903224,14)" font-family="Circular Std" font-size="11px" fill="#122b39" opacity="0">1992</text><text text-anchor="middle" transform="translate(51.61290322580645,14)" font-family="Circular Std" font-size="11px" fill="#122b39" opacity="1">1994</text><text text-anchor="middle" transform="translate(77.41935483870968,14)" font-family="Circular Std" font-size="11px" fill="#122b39" opacity="0">1996</text><text text-anchor="middle" transform="translate(103.2258064516129,14)" font-family="Circular Std" font-size="11px" fill="#122b39" opacity="1">1998</text><text text-anchor="middle" transform="translate(129.03225806451613,14)" font-family="Circular Std" font-size="11px" fill="#122b39" opacity="0">2000</text><text text-anchor="middle" transform="translate(154.83870967741936,14)" font-family="Circular Std" font-size="11px" fill="#122b39" opacity="1">2002</text><text text-anchor="middle" transform="translate(180.64516129032256,14)" font-family="Circular Std" font-size="11px" fill="#122b39" opacity="0">2004</text><text text-anchor="middle" transform="translate(206.4516129032258,14)" font-family="Circular Std" font-size="11px" fill="#122b39" opacity="1">2006</text><text text-anchor="middle" transform="translate(232.25806451612905,14)" font-family="Circular Std" font-size="11px" fill="#122b39" opacity="0">2008</text><text text-anchor="middle" transform="translate(258.06451612903226,14)" font-family="Circular Std" font-size="11px" fill="#122b39" opacity="1">2010</text><text text-anchor="middle" transform="translate(283.8709677419355,14)" font-family="Circular Std" font-size="11px" fill="#122b39" opacity="0">2012</text><text text-anchor="middle" transform="translate(309.6774193548387,14)" font-family="Circular Std" font-size="11px" fill="#122b39" opacity="1">2014</text><text text-anchor="middle" transform="translate(335.48387096774195,14)" font-family="Circular Std" font-size="11px" fill="#122b39" opacity="0">2016</text><text text-anchor="middle" transform="translate(361.2903225806451,14)" font-family="Circular Std" font-size="11px" fill="#122b39" opacity="1">2018</text><text text-anchor="middle" transform="translate(387.0967741935484,14)" font-family="Circular Std" font-size="11px" fill="#122b39" opacity="0">2020</text></g><g class="mark-rule role-axis-domain" pointer-events="none"><line transform="translate(0,0)" x2="400" y2="0" stroke="#122b39" stroke-opacity="0.5" stroke-width="1" opacity="1"/></g></g><path class="foreground" aria-hidden="true" d="" pointer-events="none" display="none"/></g></g><g class="mark-group role-axis" role="graphics-symbol" aria-roledescription="axis" aria-label="Y-axis for a linear scale with values from 0% to 10%"><g transform="translate(0.5,0.5)"><path class="background" aria-hidden="true" d="M0,0h0v0h0Z" pointer-events="none"/><g><g class="mark-rule role-axis-tick" pointer-events="none"><line transform="translate(0,300)" x2="0" y2="0" stroke="#122b39" stroke-width="1" opacity="1"/><line transform="translate(0,270)" x2="0" y2="0" stroke="#122b39" stroke-width="1" opacity="1"/><line transform="translate(0,240)" x2="0" y2="0" stroke="#122b39" stroke-width="1" opacity="1"/><line transform="translate(0,210)" x2="0" y2="0" stroke="#122b39" stroke-width="1" opacity="1"/><line transform="translate(0,180)" x2="0" y2="0" stroke="#122b39" stroke-width="1" opacity="1"/><line transform="translate(0,150)" x2="0" y2="0" stroke="#122b39" stroke-width="1" opacity="1"/><line transform="translate(0,120)" x2="0" y2="0" stroke="#122b39" stroke-width="1" opacity="1"/><line transform="translate(0,90)" x2="0" y2="0" stroke="#122b39" stroke-width="1" opacity="1"/><line transform="translate(0,60)" x2="0" y2="0" stroke="#122b39" stroke-width="1" opacity="1"/><line transform="translate(0,30)" x2="0" y2="0" stroke="#122b39" stroke-width="1" opacity="1"/><line transform="translate(0,0)" x2="0" y2="0" stroke="#122b39" stroke-width="1" opacity="1"/></g><g class="mark-text role-axis-label" pointer-events="none"><text text-anchor="end" transform="translate(-5,303)" font-family="Circular Std" font-size="11px" fill="#122b39" opacity="1">0%</text><text text-anchor="end" transform="translate(-5,273)" font-family="Circular Std" font-size="11px" fill="#122b39" opacity="1">1%</text><text text-anchor="end" transform="translate(-5,243)" font-family="Circular Std" font-size="11px" fill="#122b39" opacity="1">2%</text><text text-anchor="end" transform="translate(-5,213)" font-family="Circular Std" font-size="11px" fill="#122b39" opacity="1">3%</text><text text-anchor="end" transform="translate(-5,183.00000000000003)" font-family="Circular Std" font-size="11px" fill="#122b39" opacity="1">4%</text><text text-anchor="end" transform="translate(-5,153)" font-family="Circular Std" font-size="11px" fill="#122b39" opacity="1">5%</text><text text-anchor="end" transform="translate(-5,123)" font-family="Circular Std" font-size="11px" fill="#122b39" opacity="1">6%</text><text text-anchor="end" transform="translate(-5,92.99999999999999)" font-family="Circular Std" font-size="11px" fill="#122b39" opacity="1">7%</text><text text-anchor="end" transform="translate(-5,63.00000000000002)" font-family="Circular Std" font-size="11px" fill="#122b39" opacity="1">8%</text><text text-anchor="end" transform="translate(-5,33.00000000000003)" font-family="Circular Std" font-size="11px" fill="#122b39" opacity="1">9%</text><text text-anchor="end" transform="translate(-5,3)" font-family="Circular Std" font-size="11px" fill="#122b39" opacity="1">10%</text></g><g class="mark-rule role-axis-domain" pointer-events="none"><line transform="translate(0,300)" x2="0" y2="-300" stroke="#122b39" stroke-opacity="0.5" stroke-width="1" opacity="1"/></g></g><path class="foreground" aria-hidden="true" d="" pointer-events="none" display="none"/></g></g><g class="mark-area role-mark layer_0_marks" role="graphics-object" aria-roledescription="area mark container"><path aria-label="Time: 1990; low: 0.0621180556391; high: 0.0754808402103" role="graphics-symbol" aria-roledescription="area mark" d="M0,113.646L0,113.646L0,113.646L12.903,131.333L12.903,131.333L12.903,131.333L25.806,126.406L25.806,126.406L25.806,126.406L38.71,134.71L38.71,134.71L38.71,134.71L51.613,130.502L51.613,130.502L51.613,130.502L51.613,130.502L64.516,182.32L64.516,182.32L64.516,182.32L64.516,182.32L64.516,182.32L64.516,182.32L64.516,182.32L77.419,177.727L77.419,177.727L77.419,177.727L77.419,177.727L77.419,177.727L77.419,177.727L77.419,177.727L90.323,199.053L90.323,199.053L90.323,199.053L90.323,199.053L90.323,199.053L90.323,199.053L90.323,199.053L103.226,200.788L103.226,200.788L103.226,200.788L103.226,200.788L103.226,200.788L103.226,200.788L103.226,200.788L116.129,194.993L116.129,194.993L116.129,194.993L116.129,194.993L116.129,194.993L116.129,194.993L116.129,194.993L129.032,188.588L129.032,188.588L129.032,188.588L129.032,188.588L129.032,188.588L129.032,188.588L129.032,188.588L141.935,190.288L141.935,190.288L141.935,190.288L141.935,190.288L141.935,190.288L141.935,190.288L141.935,190.288L154.839,177.229L154.839,177.229L154.839,177.229L154.839,177.229L154.839,177.229L154.839,177.229L154.839,177.229L167.742,171.442L167.742,171.442L167.742,171.442L167.742,171.442L167.742,171.442L167.742,171.442L167.742,171.442L180.645,159.93L180.645,159.93L180.645,159.93L180.645,159.93L180.645,159.93L180.645,159.93L180.645,159.93L193.548,158.297L193.548,158.297L193.548,158.297L193.548,158.297L193.548,158.297L193.548,158.297L193.548,158.297L206.452,155.284L206.452,155.284L206.452,155.284L206.452,155.284L206.452,155.284L206.452,155.284L206.452,155.284L219.355,159.48L219.355,159.48L219.355,159.48L219.355,159.48L219.355,159.48L219.355,159.48L219.355,159.48L232.258,172.671L232.258,172.671L232.258,172.671L232.258,172.671L232.258,172.671L232.258,172.671L232.258,172.671L245.161,189.404L245.161,189.404L245.161,189.404L245.161,189.404L245.161,189.404L245.161,189.404L245.161,189.404L258.065,183.719L258.065,183.719L258.065,183.719L258.065,183.719L258.065,183.719L258.065,183.719L258.065,183.719L270.968,186.152L270.968,186.152L270.968,186.152L270.968,186.152L270.968,186.152L270.968,186.152L270.968,186.152L283.871,188.969L283.871,188.969L283.871,188.969L283.871,188.969L283.871,188.969L283.871,188.969L283.871,188.969L296.774,181.074L296.774,181.074L296.774,181.074L296.774,181.074L296.774,181.074L296.774,181.074L296.774,181.074L309.677,174.998L309.677,174.998L309.677,174.998L309.677,174.998L309.677,174.998L309.677,174.998L309.677,174.998L322.581,171.026L322.581,171.026L322.581,171.026L322.581,171.026L322.581,171.026L322.581,171.026L322.581,171.026L335.484,169.654L335.484,169.654L335.484,169.654L335.484,169.654L335.484,169.654L335.484,169.654L335.484,169.654L348.387,170.425L348.387,170.425L348.387,170.425L348.387,170.425L348.387,170.425L348.387,170.425L348.387,170.425L361.29,178.12L361.29,178.12L361.29,178.12L361.29,178.12L361.29,178.12L361.29,178.12L361.29,178.12L374.194,172.6L374.194,172.6L374.194,172.6L374.194,172.6L374.194,172.6L374.194,172.6L374.194,172.6L387.097,176.971L387.097,176.971L387.097,176.971L387.097,176.971L387.097,176.971L387.097,176.971L387.097,176.971L400,174.884L400,174.884L400,174.884L400,174.884L400,174.884L400,174.884L400,174.884L400,2.97L400,2.97L400,2.97L400,2.97L400,2.97L400,2.97L400,2.97L387.097,27.935L387.097,27.935L387.097,27.935L387.097,27.935L387.097,27.935L387.097,27.935L387.097,27.935L374.194,57.01L374.194,57.01L374.194,57.01L374.194,57.01L374.194,57.01L374.194,57.01L374.194,57.01L361.29,44.025L361.29,44.025L361.29,44.025L361.29,44.025L361.29,44.025L361.29,44.025L361.29,44.025L348.387,44.882L348.387,44.882L348.387,44.882L348.387,44.882L348.387,44.882L348.387,44.882L348.387,44.882L335.484,45.928L335.484,45.928L335.484,45.928L335.484,45.928L335.484,45.928L335.484,45.928L335.484,45.928L322.581,41.873L322.581,41.873L322.581,41.873L322.581,41.873L322.581,41.873L322.581,41.873L322.581,41.873L309.677,59.109L309.677,59.109L309.677,59.109L309.677,59.109L309.677,59.109L309.677,59.109L309.677,59.109L296.774,57.654L296.774,57.654L296.774,57.654L296.774,57.654L296.774,57.654L296.774,57.654L296.774,57.654L283.871,60.841L283.871,60.841L283.871,60.841L283.871,60.841L283.871,60.841L283.871,60.841L283.871,60.841L270.968,65.452L270.968,65.452L270.968,65.452L270.968,65.452L270.968,65.452L270.968,65.452L270.968,65.452L258.065,53.665L258.065,53.665L258.065,53.665L258.065,53.665L258.065,53.665L258.065,53.665L258.065,53.665L245.161,59.831L245.161,59.831L245.161,59.831L245.161,59.831L245.161,59.831L245.161,59.831L245.161,59.831L232.258,51.578L232.258,51.578L232.258,51.578L232.258,51.578L232.258,51.578L232.258,51.578L232.258,51.578L219.355,48.277L219.355,48.277L219.355,48.277L219.355,48.277L219.355,48.277L219.355,48.277L219.355,48.277L206.452,43.315L206.452,43.315L206.452,43.315L206.452,43.315L206.452,43.315L206.452,43.315L206.452,43.315L193.548,32.088L193.548,32.088L193.548,32.088L193.548,32.088L193.548,32.088L193.548,32.088L193.548,32.088L180.645,45.757L180.645,45.757L180.645,45.757L180.645,45.757L180.645,45.757L180.645,45.757L180.645,45.757L167.742,62.824L167.742,62.824L167.742,62.824L167.742,62.824L167.742,62.824L167.742,62.824L167.742,62.824L154.839,74.618L154.839,74.618L154.839,74.618L154.839,74.618L154.839,74.618L154.839,74.618L154.839,74.618L141.935,82.394L141.935,82.394L141.935,82.394L141.935,82.394L141.935,82.394L141.935,82.394L141.935,82.394L129.032,80.529L129.032,80.529L129.032,80.529L129.032,80.529L129.032,80.529L129.032,80.529L129.032,80.529L116.129,68.48L116.129,68.48L116.129,68.48L116.129,68.48L116.129,68.48L116.129,68.48L116.129,68.48L103.226,62.247L103.226,62.247L103.226,62.247L103.226,62.247L103.226,62.247L103.226,62.247L103.226,62.247L90.323,58.377L90.323,58.377L90.323,58.377L90.323,58.377L90.323,58.377L90.323,58.377L90.323,58.377L77.419,52.131L77.419,52.131L77.419,52.131L77.419,52.131L77.419,52.131L77.419,52.131L77.419,52.131L64.516,41.485L64.516,41.485L64.516,41.485L64.516,41.485L64.516,41.485L64.516,41.485L64.516,41.485L51.613,67.674L51.613,67.674L51.613,67.674L51.613,67.674L38.71,106.5L38.71,106.5L38.71,106.5L25.806,97.193L25.806,97.193L25.806,97.193L12.903,100.872L12.903,100.872L12.903,100.872L0,73.557L0,73.557L0,73.557Z" fill="rgba(24, 42, 56, 0.1)" opacity="0.8"/></g><g class="mark-group role-scope layer_1_pathgroup" role="graphics-object" aria-roledescription="group mark container"><g transform="translate(0,0)"><path class="background" aria-hidden="true" d="M0,0h400v300h-400Z"/><g><g class="mark-line role-mark layer_1_marks" clip-path="url(#clip36)" role="graphics-object" aria-roledescription="line mark container"><path aria-label="Time: 1990; Value: 7.548084%; LOCATION: CAN" role="graphics-symbol" aria-roledescription="line mark" d="M0,73.557L12.903,100.872L25.806,97.193L38.71,106.5L51.613,95.618L64.516,125.683L77.419,117.171L90.323,108.666L103.226,119.049L116.129,118.835L129.032,126.998L141.935,114.238L154.839,93.982L167.742,83.878L180.645,73.1L193.548,67.296L206.452,60.331L219.355,48.277L232.258,51.578L245.161,59.831L258.065,53.665L270.968,65.452L283.871,60.841L296.774,57.654L309.677,59.109L322.581,41.873L335.484,45.928L348.387,44.882L361.29,44.025L374.194,57.01L387.097,27.935L400,2.97" stroke="#179fdb" stroke-width="1.5" opacity="0.8"/></g></g><path class="foreground" aria-hidden="true" d="" display="none"/></g><g transform="translate(0,0)"><path class="background" aria-hidden="true" d="M0,0h400v300h-400Z"/><g><g class="mark-line role-mark layer_1_marks" clip-path="url(#clip37)" role="graphics-object" aria-roledescription="line mark container"><path aria-label="Time: 1990; Value: 6.732691%; LOCATION: FRA" role="graphics-symbol" aria-roledescription="line mark" d="M0,98.019L12.903,113.471L25.806,126.406L38.71,134.71L51.613,130.502L64.516,133.156L77.419,138.623L90.323,135.35L103.226,133.012L116.129,126.22L129.032,128.506L141.935,129.701L154.839,125.944L167.742,120.57L180.645,114.526L193.548,107.622L206.452,97.824L219.355,93.986L232.258,95.243L245.161,116.648L258.065,116.79L270.968,115.994L283.871,119.617L296.774,123.627L309.677,127.759L322.581,133.077L335.484,130.792L348.387,123.182L361.29,121.853L374.194,118.582L387.097,120.929L400,102.181" stroke="#f4c245" stroke-width="1.5" opacity="0.8"/></g></g><path class="foreground" aria-hidden="true" d="" display="none"/></g><g transform="translate(0,0)"><path class="background" aria-hidden="true" d="M0,0h400v300h-400Z"/><g><g class="mark-line role-mark layer_1_marks" clip-path="url(#clip38)" role="graphics-object" aria-roledescription="line mark container"><path aria-label="Time: 1990; Value: 6.211806%; LOCATION: USA" role="graphics-symbol" aria-roledescription="line mark" d="M0,113.646L12.903,131.333L25.806,126.245L38.71,116.268L51.613,108.352L64.516,113.8L77.419,107.934L90.323,105.53L103.226,93.069L116.129,86.036L129.032,84.434L141.935,82.394L154.839,74.618L167.742,62.824L180.645,45.757L193.548,32.088L206.452,43.315L219.355,77.631L232.258,113.547L245.161,145.138L258.065,156.635L270.968,157.655L283.871,146.594L296.774,134.47L309.677,127.9L322.581,119.926L335.484,112.186L348.387,107.117L361.29,108.228L374.194,110.485L387.097,96.061L400,85.346" stroke="#179fdb" stroke-width="1.5" opacity="0.8"/></g></g><path class="foreground" aria-hidden="true" d="" display="none"/></g><g transform="translate(0,0)"><path class="background" aria-hidden="true" d="M0,0h400v300h-400Z"/><g><g class="mark-line role-mark layer_1_marks" clip-path="url(#clip39)" role="graphics-object" aria-roledescription="line mark container"><path aria-label="Time: 1995; Value: 6.805572%; LOCATION: ITA" role="graphics-symbol" aria-roledescription="line mark" d="M64.516,95.833L77.419,101.267L90.323,104.058L103.226,107.012L116.129,106.419L129.032,95.784L141.935,98.289L154.839,86.946L167.742,87.677L180.645,89.601L193.548,78.033L206.452,72.26L219.355,70.951L232.258,76.725L245.161,89.032L258.065,88.364L270.968,98.283L283.871,113.408L296.774,127.268L309.677,140.594L322.581,145.478L335.484,145.026L348.387,144.379L361.29,143.933L374.194,147.638L387.097,148.036L400,91.346" stroke="#eb5c2e" stroke-width="1.5" opacity="0.8"/></g></g><path class="foreground" aria-hidden="true" d="" display="none"/></g><g transform="translate(0,0)"><path class="background" aria-hidden="true" d="M0,0h400v300h-400Z"/><g><g class="mark-line role-mark layer_1_marks" clip-path="url(#clip40)" role="graphics-object" aria-roledescription="line mark container"><path aria-label="Time: 1994; Value: 7.744207%; LOCATION: JPN" role="graphics-symbol" aria-roledescription="line mark" d="M51.613,67.674L64.516,80.054L77.419,72.455L90.323,92.266L103.226,115.101L116.129,116.817L129.032,121.653L141.935,130.886L154.839,133.585L167.742,139.512L180.645,141.291L193.548,143.175L206.452,147.485L219.355,159.48L232.258,161.831L245.161,177.507L258.065,180.146L270.968,171.162L283.871,169.63L296.774,160.545L309.677,165.228L322.581,170.894L335.484,169.654L348.387,170.425L361.29,178.12L374.194,172.6L387.097,176.971L400,174.884" stroke="#36b7b4" stroke-width="1.5" opacity="0.8"/></g></g><path class="foreground" aria-hidden="true" d="" display="none"/></g><g transform="translate(0,0)"><path class="background" aria-hidden="true" d="M0,0h400v300h-400Z"/><g><g class="mark-line role-mark layer_1_marks" clip-path="url(#clip41)" role="graphics-object" aria-roledescription="line mark container"><path aria-label="Time: 1995; Value: 3.922662%; LOCATION: GBR" role="graphics-symbol" aria-roledescription="line mark" d="M64.516,182.32L77.419,177.727L90.323,199.053L103.226,200.788L116.129,194.993L129.032,188.588L141.935,190.288L154.839,177.229L167.742,171.442L180.645,159.93L193.548,158.297L206.452,155.284L219.355,158.705L232.258,172.671L245.161,189.404L258.065,183.719L270.968,186.152L283.871,188.969L296.774,181.074L309.677,174.998L322.581,171.026L335.484,166.443L348.387,157.187L361.29,156.13L374.194,159.829L387.097,170.916L400,167.911" stroke="#122b39" stroke-width="3" opacity="1"/></g></g><path class="foreground" aria-hidden="true" d="" display="none"/></g><g transform="translate(0,0)"><path class="background" aria-hidden="true" d="M0,0h400v300h-400Z"/><g><g class="mark-line role-mark layer_1_marks" clip-path="url(#clip42)" role="graphics-object" aria-roledescription="line mark container"><path aria-label="Time: 1995; Value: 8.617182%; LOCATION: DEU" role="graphics-symbol" aria-roledescription="line mark" d="M64.516,41.485L77.419,52.131L90.323,58.377L103.226,62.247L116.129,68.48L129.032,80.529L141.935,99.084L154.839,112.846L167.742,118.07L180.645,124.779L193.548,128.656L206.452,121.313L219.355,121.511L232.258,124.561L245.161,127.367L258.065,125.73L270.968,112.926L283.871,109.58L296.774,112.077L309.677,113.118L322.581,120.527L335.484,115.386L348.387,119.403L361.29,113.999L374.194,112.448L387.097,101.906L400,98.398" stroke="#e6224b" stroke-width="1.5" opacity="0.8"/></g></g><path class="foreground" aria-hidden="true" d="" display="none"/></g></g><g class="mark-symbol role-mark layer_2_marks" role="graphics-object" aria-roledescription="symbol mark container"><path aria-label="Time: 2021; Value: 4.402956%; LOCATION: GBR" role="graphics-symbol" aria-roledescription="circle" transform="translate(400,167.9113114129494)" d="M2.739,0A2.739,2.739,0,1,1,-2.739,0A2.739,2.739,0,1,1,2.739,0" fill="#122b39" stroke-width="2" opacity="1"/><path aria-label="Time: 2021; Value: 6.593974%; LOCATION: FRA" role="graphics-symbol" aria-roledescription="circle" transform="translate(400,102.18079231327799)" d="M2.739,0A2.739,2.739,0,1,1,-2.739,0A2.739,2.739,0,1,1,2.739,0" fill="#f4c245" stroke-width="2" opacity="0.8"/><path aria-label="Time: 2021; Value: 4.170525%; LOCATION: JPN" role="graphics-symbol" aria-roledescription="circle" transform="translate(400,174.88425569304835)" d="M2.739,0A2.739,2.739,0,1,1,-2.739,0A2.739,2.739,0,1,1,2.739,0" fill="#36b7b4" stroke-width="2" opacity="0.8"/><path aria-label="Time: 2021; Value: 9.900989%; LOCATION: CAN" role="graphics-symbol" aria-roledescription="circle" transform="translate(400,2.9703324476498816)" d="M2.739,0A2.739,2.739,0,1,1,-2.739,0A2.739,2.739,0,1,1,2.739,0" fill="#179fdb" stroke-width="2" opacity="0.8"/><path aria-label="Time: 2021; Value: 6.720065%; LOCATION: DEU" role="graphics-symbol" aria-roledescription="circle" transform="translate(400,98.3980427853442)" d="M2.739,0A2.739,2.739,0,1,1,-2.739,0A2.739,2.739,0,1,1,2.739,0" fill="#e6224b" stroke-width="2" opacity="0.8"/><path aria-label="Time: 2021; Value: 6.955145%; LOCATION: ITA" role="graphics-symbol" aria-roledescription="circle" transform="translate(400,91.34565393687708)" d="M2.739,0A2.739,2.739,0,1,1,-2.739,0A2.739,2.739,0,1,1,2.739,0" fill="#eb5c2e" stroke-width="2" opacity="0.8"/><path aria-label="Time: 2021; Value: 7.155135%; LOCATION: USA" role="graphics-symbol" aria-roledescription="circle" transform="translate(400,85.34594431891918)" d="M2.739,0A2.739,2.739,0,1,1,-2.739,0A2.739,2.739,0,1,1,2.739,0" fill="#179fdb" stroke-width="2" opacity="0.8"/></g><g class="mark-text role-mark layer_3_marks" role="graphics-object" aria-roledescription="text mark container"><text aria-label="Value: 4.402956%; LOCATION: GBR; Country: United Kingdom" role="graphics-symbol" aria-roledescription="text mark" text-anchor="middle" transform="translate(401,170.9113114129494)" font-family="Circular Std" font-size="11px" fill="#122b39" opacity="1">United Kingdom</text><text aria-label="Value: 6.593974%; LOCATION: FRA; Country: France" role="graphics-symbol" aria-roledescription="text mark" text-anchor="middle" transform="translate(401,105.18079231327799)" font-family="Circular Std" font-size="11px" fill="#f4c245" opacity="0.8">France</text><text aria-label="Value: 4.170525%; LOCATION: JPN; Country: Japan" role="graphics-symbol" aria-roledescription="text mark" text-anchor="middle" transform="translate(401,177.88425569304835)" font-family="Circular Std" font-size="11px" fill="#36b7b4" opacity="0.8">Japan</text><text aria-label="Value: 9.900989%; LOCATION: CAN; Country: Canada" role="graphics-symbol" aria-roledescription="text mark" text-anchor="middle" transform="translate(401,5.970332447649882)" font-family="Circular Std" font-size="11px" fill="#179fdb" opacity="0.8">Canada</text><text aria-label="Value: 6.720065%; LOCATION: DEU; Country: Germany" role="graphics-symbol" aria-roledescription="text mark" text-anchor="middle" transform="translate(401,101.3980427853442)" font-family="Circular Std" font-size="11px" fill="#e6224b" opacity="0.8">Germany</text><text aria-label="Value: 6.955145%; LOCATION: ITA; Country: Italy" role="graphics-symbol" aria-roledescription="text mark" text-anchor="middle" transform="translate(401,94.34565393687708)" font-family="Circular Std" font-size="11px" fill="#eb5c2e" opacity="0.8">Italy</text><text aria-label="Value: 7.155135%; LOCATION: USA; Country: United States" role="graphics-symbol" aria-roledescription="text mark" text-anchor="middle" transform="translate(401,88.34594431891918)" font-family="Circular Std" font-size="11px" fill="#179fdb" opacity="0.8">United States</text></g></g><path class="foreground" aria-hidden="true" d="" display="none"/></g></g></g><defs><clipPath id="clip36"><rect x="0" y="0" width="400" height="300"/></clipPath><clipPath id="clip37"><rect x="0" y="0" width="400" height="300"/></clipPath><clipPath id="clip38"><rect x="0" y="0" width="400" height="300"/></clipPath><clipPath id="clip39"><rect x="0" y="0" width="400" height="300"/></clipPath><clipPath id="clip40"><rect x="0" y="0" width="400" height="300"/></clipPath><clipPath id="clip41"><rect x="0" y="0" width="400" height="300"/></clipPath><clipPath id="clip42"><rect x="0" y="0" width="400" height="300"/></clipPath></defs></svg>