<svg xmlns="http://www.w3.org/2000/svg" xmlns:xlink="http://www.w3.org/1999/xlink" version="1.1" class="marks" width="479" height="332" viewBox="0 0 479 332"><rect width="479" height="332" fill="white"/><g fill="none" stroke-miterlimit="10" transform="translate(32,11)"><g class="mark-group role-frame root" role="graphics-object" aria-roledescription="group mark container"><g transform="translate(0,0)"><path class="background" aria-hidden="true" d="M0,0h400v300h-400Z" stroke-width="0"/><g><g class="mark-group role-axis" aria-hidden="true"><g transform="translate(0.5,300.5)"><path class="background" aria-hidden="true" d="M0,0h0v0h0Z" pointer-events="none"/><g><g class="mark-rule role-axis-grid" pointer-events="none"><line transform="translate(0,-300)" x2="0" y2="300" stroke="#ddd" stroke-opacity="0" stroke-width="1" opacity="1"/><line transform="translate(26,-300)" x2="0" y2="300" stroke="#ddd" stroke-opacity="0" stroke-width="1" opacity="1"/><line transform="translate(52,-300)" x2="0" y2="300" stroke="#ddd" stroke-opacity="0" stroke-width="1" opacity="1"/><line transform="translate(77,-300)" x2="0" y2="300" stroke="#ddd" stroke-opacity="0" stroke-width="1" opacity="1"/><line transform="translate(103,-300)" x2="0" y2="300" stroke="#ddd" stroke-opacity="0" stroke-width="1" opacity="1"/><line transform="translate(129,-300)" x2="0" y2="300" stroke="#ddd" stroke-opacity="0" stroke-width="1" opacity="1"/><line transform="translate(155,-300)" x2="0" y2="300" stroke="#ddd" stroke-opacity="0" stroke-width="1" opacity="1"/><line transform="translate(181,-300)" x2="0" y2="300" stroke="#ddd" stroke-opacity="0" stroke-width="1" opacity="1"/><line transform="translate(206,-300)" x2="0" y2="300" stroke="#ddd" stroke-opacity="0" stroke-width="1" opacity="1"/><line transform="translate(232,-300)" x2="0" y2="300" stroke="#ddd" stroke-opacity="0" stroke-width="1" opacity="1"/><line transform="translate(258,-300)" x2="0" y2="300" stroke="#ddd" stroke-opacity="0" stroke-width="1" opacity="1"/><line transform="translate(284,-300)" x2="0" y2="300" stroke="#ddd" stroke-opacity="0" stroke-width="1" opacity="1"/><line transform="translate(310,-300)" x2="0" y2="300" stroke="#ddd" stroke-opacity="0" stroke-width="1" opacity="1"/><line transform="translate(335,-300)" x2="0" y2="300" stroke="#ddd" stroke-opacity="0" stroke-width="1" opacity="1"/><line transform="translate(361,-300)" x2="0" y2="300" stroke="#ddd" stroke-opacity="0" stroke-width="1" opacity="1"/><line transform="translate(387,-300)" x2="0" y2="300" stroke="#ddd" stroke-opacity="0" stroke-width="1" opacity="1"/></g></g><path class="foreground" aria-hidden="true" d="" pointer-events="none" display="none"/></g></g><g class="mark-group role-axis" aria-hidden="true"><g transform="translate(0.5,0.5)"><path class="background" aria-hidden="true" d="M0,0h0v0h0Z" pointer-events="none"/><g><g class="mark-rule role-axis-grid" pointer-events="none"><line transform="translate(0,300)" x2="400" y2="0" stroke="#122b39" stroke-opacity="0.5" stroke-width="1" stroke-dasharray="1,5" opacity="1"/><line transform="translate(0,257)" x2="400" y2="0" stroke="#122b39" stroke-opacity="0.5" stroke-width="1" stroke-dasharray="1,5" opacity="1"/><line transform="translate(0,214)" x2="400" y2="0" stroke="#122b39" stroke-opacity="0.5" stroke-width="1" stroke-dasharray="1,5" opacity="1"/><line transform="translate(0,171)" x2="400" y2="0" stroke="#122b39" stroke-opacity="0.5" stroke-width="1" stroke-dasharray="1,5" opacity="1"/><line transform="translate(0,129)" x2="400" y2="0" stroke="#122b39" stroke-opacity="0.5" stroke-width="1" stroke-dasharray="1,5" opacity="1"/><line transform="translate(0,86)" x2="400" y2="0" stroke="#122b39" stroke-opacity="0.5" stroke-width="1" stroke-dasharray="1,5" opacity="1"/><line transform="translate(0,43)" x2="400" y2="0" stroke="#122b39" stroke-opacity="0.5" stroke-width="1" stroke-dasharray="1,5" opacity="1"/><line transform="translate(0,0)" x2="400" y2="0" stroke="#122b39" stroke-opacity="0.5" stroke-width="1" stroke-dasharray="1,5" opacity="1"/></g></g><path class="foreground" aria-hidden="true" d="" pointer-events="none" display="none"/></g></g><g class="mark-group role-axis" role="graphics-symbol" aria-roledescription="axis" aria-label="X-axis for a linear scale with values from 1990 to 2021"><g transform="translate(0.5,300.5)"><path class="background" aria-hidden="true" d="M0,0h0v0h0Z" pointer-events="none"/><g><g class="mark-rule role-axis-tick" pointer-events="none"><line transform="translate(0,0)" x2="0" y2="0" stroke="#122b39" stroke-width="1" opacity="1"/><line transform="translate(26,0)" x2="0" y2="0" stroke="#122b39" stroke-width="1" opacity="1"/><line transform="translate(52,0)" x2="0" y2="0" stroke="#122b39" stroke-width="1" opacity="1"/><line transform="translate(77,0)" x2="0" y2="0" stroke="#122b39" stroke-width="1" opacity="1"/><line transform="translate(103,0)" x2="0" y2="0" stroke="#122b39" stroke-width="1" opacity="1"/><line transform="translate(129,0)" x2="0" y2="0" stroke="#122b39" stroke-width="1" opacity="1"/><line transform="translate(155,0)" x2="0" y2="0" stroke="#122b39" stroke-width="1" opacity="1"/><line transform="translate(181,0)" x2="0" y2="0" stroke="#122b39" stroke-width="1" opacity="1"/><line transform="translate(206,0)" x2="0" y2="0" stroke="#122b39" stroke-width="1" opacity="1"/><line transform="translate(232,0)" x2="0" y2="0" stroke="#122b39" stroke-width="1" opacity="1"/><line transform="translate(258,0)" x2="0" y2="0" stroke="#122b39" stroke-width="1" opacity="1"/><line transform="translate(284,0)" x2="0" y2="0" stroke="#122b39" stroke-width="1" opacity="1"/><line transform="translate(310,0)" x2="0" y2="0" stroke="#122b39" stroke-width="1" opacity="1"/><line transform="translate(335,0)" x2="0" y2="0" stroke="#122b39" stroke-width="1" opacity="1"/><line transform="translate(361,0)" x2="0" y2="0" stroke="#122b39" stroke-width="1" opacity="1"/><line transform="translate(387,0)" x2="0" y2="0" stroke="#122b39" stroke-width="1" opacity="1"/></g><g class="mark-text role-axis-label" pointer-events="none"><text text-anchor="middle" transform="translate(0,14)" font-family="Circular Std" font-size="11px" fill="#122b39" opacity="1">1990</text><text text-anchor="middle" transform="translate(25.806451612903224,14)" font-family="Circular Std" font-size="11px" fill="#122b39" opacity="0">1992</text><text text-anchor="middle" transform="translate(51.61290322580645,14)" font-family="Circular Std" font-size="11px" fill="#122b39" opacity="1">1994</text><text text-anchor="middle" transform="translate(77.41935483870968,14)" font-family="Circular Std" font-size="11px" fill="#122b39" opacity="0">1996</text><text text-anchor="middle" transform="translate(103.2258064516129,14)" font-family="Circular Std" font-size="11px" fill="#122b39" opacity="1">1998</text><text text-anchor="middle" transform="translate(129.03225806451613,14)" font-family="Circular Std" font-size="11px" fill="#122b39" opacity="0">2000</text><text text-anchor="middle" transform="translate(154.83870967741936,14)" font-family="Circular Std" font-size="11px" fill="#122b39" opacity="1">2002</text><text text-anchor="middle" transform="translate(180.64516129032256,14)" font-family="Circular Std" font-size="11px" fill="#122b39" opacity="0">2004</text><text text-anchor="middle" transform="translate(206.4516129032258,14)" font-family="Circular Std" font-size="11px" fill="#122b39" opacity="1">2006</text><text text-anchor="middle" transform="translate(232.25806451612905,14)" font-family="Circular Std" font-size="11px" fill="#122b39" opacity="0">2008</text><text text-anchor="middle" transform="translate(258.06451612903226,14)" font-family="Circular Std" font-size="11px" fill="#122b39" opacity="1">2010</text><text text-anchor="middle" transform="translate(283.8709677419355,14)" font-family="Circular Std" font-size="11px" fill="#122b39" opacity="0">2012</text><text text-anchor="middle" transform="translate(309.6774193548387,14)" font-family="Circular Std" font-size="11px" fill="#122b39" opacity="1">2014</text><text text-anchor="middle" transform="translate(335.48387096774195,14)" font-family="Circular Std" font-size="11px" fill="#122b39" opacity="0">2016</text><text text-anchor="middle" transform="translate(361.2903225806451,14)" font-family="Circular Std" font-size="11px" fill="#122b39" opacity="1">2018</text><text text-anchor="middle" transform="translate(387.0967741935484,14)" font-family="Circular Std" font-size="11px" fill="#122b39" opacity="0">2020</text></g><g class="mark-rule role-axis-domain" pointer-events="none"><line transform="translate(0,0)" x2="400" y2="0" stroke="#122b39" stroke-opacity="0.5" stroke-width="1" opacity="1"/></g></g><path class="foreground" aria-hidden="true" d="" pointer-events="none" display="none"/></g></g><g class="mark-group role-axis" role="graphics-symbol" aria-roledescription="axis" aria-label="Y-axis for a linear scale with values from 0% to 35%"><g transform="translate(0.5,0.5)"><path class="background" aria-hidden="true" d="M0,0h0v0h0Z" pointer-events="none"/><g><g class="mark-rule role-axis-tick" pointer-events="none"><line transform="translate(0,300)" x2="0" y2="0" stroke="#122b39" stroke-width="1" opacity="1"/><line transform="translate(0,257)" x2="0" y2="0" stroke="#122b39" stroke-width="1" opacity="1"/><line transform="translate(0,214)" x2="0" y2="0" stroke="#122b39" stroke-width="1" opacity="1"/><line transform="translate(0,171)" x2="0" y2="0" stroke="#122b39" stroke-width="1" opacity="1"/><line transform="translate(0,129)" x2="0" y2="0" stroke="#122b39" stroke-width="1" opacity="1"/><line transform="translate(0,86)" x2="0" y2="0" stroke="#122b39" stroke-width="1" opacity="1"/><line transform="translate(0,43)" x2="0" y2="0" stroke="#122b39" stroke-width="1" opacity="1"/><line transform="translate(0,0)" x2="0" y2="0" stroke="#122b39" stroke-width="1" opacity="1"/></g><g class="mark-text role-axis-label" pointer-events="none"><text text-anchor="end" transform="translate(-5,303)" font-family="Circular Std" font-size="11px" fill="#122b39" opacity="1">0%</text><text text-anchor="end" transform="translate(-5,260.1428571428571)" font-family="Circular Std" font-size="11px" fill="#122b39" opacity="1">5%</text><text text-anchor="end" transform="translate(-5,217.28571428571425)" font-family="Circular Std" font-size="11px" fill="#122b39" opacity="1">10%</text><text text-anchor="end" transform="translate(-5,174.42857142857142)" font-family="Circular Std" font-size="11px" fill="#122b39" opacity="1">15%</text><text text-anchor="end" transform="translate(-5,131.57142857142856)" font-family="Circular Std" font-size="11px" fill="#122b39" opacity="1">20%</text><text text-anchor="end" transform="translate(-5,88.71428571428571)" font-family="Circular Std" font-size="11px" fill="#122b39" opacity="1">25%</text><text text-anchor="end" transform="translate(-5,45.85714285714284)" font-family="Circular Std" font-size="11px" fill="#122b39" opacity="1">30%</text><text text-anchor="end" transform="translate(-5,3)" font-family="Circular Std" font-size="11px" fill="#122b39" opacity="1">35%</text></g><g class="mark-rule role-axis-domain" pointer-events="none"><line transform="translate(0,300)" x2="0" y2="-300" stroke="#122b39" stroke-opacity="0.5" stroke-width="1" opacity="1"/></g></g><path class="foreground" aria-hidden="true" d="" pointer-events="none" display="none"/></g></g><g class="mark-area role-mark layer_0_marks" role="graphics-object" aria-roledescription="area mark container"><path aria-label="Time: 1990; low: 0.212852817239; high: 0.349561918061" role="graphics-symbol" aria-roledescription="area mark" d="M0,117.555L0,117.555L0,117.555L0,117.555L0,117.555L0,117.555L0,117.555L12.903,127.568L12.903,127.568L12.903,127.568L12.903,127.568L12.903,127.568L12.903,127.568L12.903,127.568L25.806,133.84L25.806,133.84L25.806,133.84L25.806,133.84L25.806,133.84L25.806,133.84L25.806,133.84L38.71,141.109L38.71,141.109L38.71,141.109L38.71,141.109L38.71,141.109L38.71,141.109L38.71,141.109L51.613,138.775L51.613,138.775L51.613,138.775L51.613,138.775L51.613,138.775L51.613,138.775L51.613,138.775L64.516,144.961L64.516,144.961L64.516,144.961L64.516,144.961L64.516,144.961L64.516,144.961L64.516,144.961L77.419,140.454L77.419,140.454L77.419,140.454L77.419,140.454L77.419,140.454L77.419,140.454L77.419,140.454L90.323,152.814L90.323,152.814L90.323,152.814L90.323,152.814L90.323,152.814L90.323,152.814L90.323,152.814L103.226,149.613L103.226,149.613L103.226,149.613L103.226,149.613L103.226,149.613L103.226,149.613L103.226,149.613L116.129,150.054L116.129,150.054L116.129,150.054L116.129,150.054L116.129,150.054L116.129,150.054L116.129,150.054L129.032,147.348L129.032,147.348L129.032,147.348L129.032,147.348L129.032,147.348L129.032,147.348L129.032,147.348L141.935,147.918L141.935,147.918L141.935,147.918L141.935,147.918L141.935,147.918L141.935,147.918L141.935,147.918L154.839,148.129L154.839,148.129L154.839,148.129L154.839,148.129L154.839,148.129L154.839,148.129L154.839,148.129L167.742,149.908L167.742,149.908L167.742,149.908L167.742,149.908L167.742,149.908L167.742,149.908L167.742,149.908L180.645,150.191L180.645,150.191L180.645,150.191L180.645,150.191L180.645,150.191L180.645,150.191L180.645,150.191L193.548,149.219L193.548,149.219L193.548,149.219L193.548,149.219L193.548,149.219L193.548,149.219L193.548,149.219L206.452,147.186L206.452,147.186L206.452,147.186L206.452,147.186L206.452,147.186L206.452,147.186L206.452,147.186L219.355,144.454L219.355,144.454L219.355,144.454L219.355,144.454L219.355,144.454L219.355,144.454L219.355,144.454L232.258,148.724L232.258,148.724L232.258,148.724L232.258,148.724L232.258,148.724L232.258,148.724L232.258,148.724L245.161,161.607L245.161,161.607L245.161,161.607L245.161,161.607L245.161,161.607L245.161,161.607L245.161,161.607L258.065,162.366L258.065,162.366L258.065,162.366L258.065,162.366L258.065,162.366L258.065,162.366L258.065,162.366L270.968,165.329L270.968,165.329L270.968,165.329L270.968,165.329L270.968,165.329L270.968,165.329L270.968,165.329L283.871,164.946L283.871,164.946L283.871,164.946L283.871,164.946L283.871,164.946L283.871,164.946L283.871,164.946L296.774,163.133L296.774,163.133L296.774,163.133L296.774,163.133L296.774,163.133L296.774,163.133L296.774,163.133L309.677,157.951L309.677,157.951L309.677,157.951L309.677,157.951L309.677,157.951L309.677,157.951L309.677,157.951L322.581,154.839L322.581,154.839L322.581,154.839L322.581,154.839L322.581,154.839L322.581,154.839L322.581,154.839L335.484,152.82L335.484,152.82L335.484,152.82L335.484,152.82L335.484,152.82L335.484,152.82L335.484,152.82L348.387,150.165L348.387,150.165L348.387,150.165L348.387,150.165L348.387,150.165L348.387,150.165L348.387,150.165L361.29,147.033L361.29,147.033L361.29,147.033L361.29,147.033L361.29,147.033L361.29,147.033L361.29,147.033L374.194,145.807L374.194,145.807L374.194,145.807L374.194,145.807L374.194,145.807L374.194,145.807L374.194,145.807L387.097,150.311L387.097,150.311L387.097,150.311L387.097,150.311L387.097,150.311L387.097,150.311L387.097,150.311L400,148.449L400,148.449L400,148.449L400,148.449L400,148.449L400,148.449L400,148.449L400,80.623L400,80.623L400,80.623L400,80.623L400,80.623L400,80.623L400,80.623L387.097,81.279L387.097,81.279L387.097,81.279L387.097,81.279L387.097,81.279L387.097,81.279L387.097,81.279L374.194,81.021L374.194,81.021L374.194,81.021L374.194,81.021L374.194,81.021L374.194,81.021L374.194,81.021L361.29,83.419L361.29,83.419L361.29,83.419L361.29,83.419L361.29,83.419L361.29,83.419L361.29,83.419L348.387,85.651L348.387,85.651L348.387,85.651L348.387,85.651L348.387,85.651L348.387,85.651L348.387,85.651L335.484,87.766L335.484,87.766L335.484,87.766L335.484,87.766L335.484,87.766L335.484,87.766L335.484,87.766L322.581,85.959L322.581,85.959L322.581,85.959L322.581,85.959L322.581,85.959L322.581,85.959L322.581,85.959L309.677,84.99L309.677,84.99L309.677,84.99L309.677,84.99L309.677,84.99L309.677,84.99L309.677,84.99L296.774,89.515L296.774,89.515L296.774,89.515L296.774,89.515L296.774,89.515L296.774,89.515L296.774,89.515L283.871,90.049L283.871,90.049L283.871,90.049L283.871,90.049L283.871,90.049L283.871,90.049L283.871,90.049L270.968,98.481L270.968,98.481L270.968,98.481L270.968,98.481L270.968,98.481L270.968,98.481L270.968,98.481L258.065,98.904L258.065,98.904L258.065,98.904L258.065,98.904L258.065,98.904L258.065,98.904L258.065,98.904L245.161,97.506L245.161,97.506L245.161,97.506L245.161,97.506L245.161,97.506L245.161,97.506L245.161,97.506L232.258,83.204L232.258,83.204L232.258,83.204L232.258,83.204L232.258,83.204L232.258,83.204L232.258,83.204L219.355,82.242L219.355,82.242L219.355,82.242L219.355,82.242L219.355,82.242L219.355,82.242L219.355,82.242L206.452,76.76L206.452,76.76L206.452,76.76L206.452,76.76L206.452,76.76L206.452,76.76L206.452,76.76L193.548,77.991L193.548,77.991L193.548,77.991L193.548,77.991L193.548,77.991L193.548,77.991L193.548,77.991L180.645,82.938L180.645,82.938L180.645,82.938L180.645,82.938L180.645,82.938L180.645,82.938L180.645,82.938L167.742,79.6L167.742,79.6L167.742,79.6L167.742,79.6L167.742,79.6L167.742,79.6L167.742,79.6L154.839,74.911L154.839,74.911L154.839,74.911L154.839,74.911L154.839,74.911L154.839,74.911L154.839,74.911L141.935,62.306L141.935,62.306L141.935,62.306L141.935,62.306L141.935,62.306L141.935,62.306L141.935,62.306L129.032,55.824L129.032,55.824L129.032,55.824L129.032,55.824L129.032,55.824L129.032,55.824L129.032,55.824L116.129,52.268L116.129,52.268L116.129,52.268L116.129,52.268L116.129,52.268L116.129,52.268L116.129,52.268L103.226,49.006L103.226,49.006L103.226,49.006L103.226,49.006L103.226,49.006L103.226,49.006L103.226,49.006L90.323,37.854L90.323,37.854L90.323,37.854L90.323,37.854L90.323,37.854L90.323,37.854L90.323,37.854L77.419,29.351L77.419,29.351L77.419,29.351L77.419,29.351L77.419,29.351L77.419,29.351L77.419,29.351L64.516,37.664L64.516,37.664L64.516,37.664L64.516,37.664L64.516,37.664L64.516,37.664L64.516,37.664L51.613,37.532L51.613,37.532L51.613,37.532L51.613,37.532L51.613,37.532L51.613,37.532L51.613,37.532L38.71,28.417L38.71,28.417L38.71,28.417L38.71,28.417L38.71,28.417L38.71,28.417L38.71,28.417L25.806,14.353L25.806,14.353L25.806,14.353L25.806,14.353L25.806,14.353L25.806,14.353L25.806,14.353L12.903,3.031L12.903,3.031L12.903,3.031L12.903,3.031L12.903,3.031L12.903,3.031L12.903,3.031L0,0.375L0,0.375L0,0.375L0,0.375L0,0.375L0,0.375L0,0.375Z" fill="rgba(24, 42, 56, 0.1)" opacity="0.8"/></g><g class="mark-group role-scope layer_1_pathgroup" role="graphics-object" aria-roledescription="group mark container"><g transform="translate(0,0)"><path class="background" aria-hidden="true" d="M0,0h400v300h-400Z"/><g><g class="mark-line role-mark layer_1_marks" clip-path="url(#clip50)" role="graphics-object" aria-roledescription="line mark container"><path aria-label="Time: 1990; Value: 23.382652%; LOCATION: FRA" role="graphics-symbol" aria-roledescription="line mark" d="M0,99.577L12.903,101.327L25.806,110.735L38.71,122.517L51.613,124.941L64.516,127.937L77.419,129.77L90.323,132.691L103.226,129.419L116.129,121.635L129.032,115.592L141.935,115.6L154.839,120.4L167.742,119.701L180.645,116.874L193.548,113.165L206.452,107.565L219.355,101.291L232.258,97.748L245.161,110.85L258.065,110.525L270.968,107.795L283.871,107.502L296.774,111.07L309.677,112.974L322.581,115.72L335.484,113.011L348.387,107.18L361.29,103.777L374.194,98.765L387.097,100.506L400,90.281" stroke="#f4c245" stroke-width="1.5" opacity="0.8"/></g></g><path class="foreground" aria-hidden="true" d="" display="none"/></g><g transform="translate(0,0)"><path class="background" aria-hidden="true" d="M0,0h400v300h-400Z"/><g><g class="mark-line role-mark layer_1_marks" clip-path="url(#clip51)" role="graphics-object" aria-roledescription="line mark container"><path aria-label="Time: 1990; Value: 24.422675%; LOCATION: DEU" role="graphics-symbol" aria-roledescription="line mark" d="M0,90.663L12.903,86.649L25.806,83.99L38.71,93.804L51.613,93.074L64.516,98.237L77.419,102.623L90.323,105.852L103.226,104.587L116.129,102.526L129.032,101.877L141.935,113.33L154.839,127.528L167.742,132.657L180.645,136.363L193.548,136.485L206.452,130.261L219.355,128.087L232.258,125.975L245.161,134.85L258.065,132.493L270.968,125.393L283.871,125.819L296.774,129.416L309.677,128.226L322.581,128.401L335.484,126.015L348.387,125.044L361.29,119.441L374.194,117.291L387.097,115.365L400,117.433" stroke="#e6224b" stroke-width="1.5" opacity="0.8"/></g></g><path class="foreground" aria-hidden="true" d="" display="none"/></g><g transform="translate(0,0)"><path class="background" aria-hidden="true" d="M0,0h400v300h-400Z"/><g><g class="mark-line role-mark layer_1_marks" clip-path="url(#clip52)" role="graphics-object" aria-roledescription="line mark container"><path aria-label="Time: 1990; Value: 21.285282%; LOCATION: USA" role="graphics-symbol" aria-roledescription="line mark" d="M0,117.555L12.903,127.568L25.806,130.053L38.71,127.799L51.613,125.11L64.516,121.161L77.419,117.255L90.323,115.004L103.226,109.241L116.129,104.677L129.032,101.603L141.935,106.813L154.839,115.372L167.742,114.663L180.645,110.334L193.548,103.417L206.452,102.53L219.355,108.66L232.258,117.982L245.161,138.77L258.065,143.023L270.968,139.397L283.871,132.749L296.774,130.951L309.677,126L322.581,124.721L335.484,125.376L348.387,123.016L361.29,120.702L374.194,120.182L387.097,117.291L400,118.404" stroke="#179fdb" stroke-width="1.5" opacity="0.8"/></g></g><path class="foreground" aria-hidden="true" d="" display="none"/></g><g transform="translate(0,0)"><path class="background" aria-hidden="true" d="M0,0h400v300h-400Z"/><g><g class="mark-line role-mark layer_1_marks" clip-path="url(#clip53)" role="graphics-object" aria-roledescription="line mark container"><path aria-label="Time: 1990; Value: 22.292224%; LOCATION: ITA" role="graphics-symbol" aria-roledescription="line mark" d="M0,108.924L12.903,112.376L25.806,117.17L38.71,136.261L51.613,138.775L64.516,133.949L77.419,135.453L90.323,135.723L103.226,132.967L116.129,129.593L129.032,122.307L141.935,122.391L154.839,116.885L167.742,121.069L180.645,120.307L193.548,117.586L206.452,115.025L219.355,114.338L232.258,117.618L245.161,127.624L258.065,128.364L270.968,131.024L283.871,143.065L296.774,152.532L309.677,156.667L322.581,154.839L335.484,152.82L348.387,150.165L361.29,147.033L374.194,145.807L387.097,145.981L400,124.361" stroke="#eb5c2e" stroke-width="1.5" opacity="0.8"/></g></g><path class="foreground" aria-hidden="true" d="" display="none"/></g><g transform="translate(0,0)"><path class="background" aria-hidden="true" d="M0,0h400v300h-400Z"/><g><g class="mark-line role-mark layer_1_marks" clip-path="url(#clip54)" role="graphics-object" aria-roledescription="line mark container"><path aria-label="Time: 1990; Value: 23.621768%; LOCATION: GBR" role="graphics-symbol" aria-roledescription="line mark" d="M0,97.528L12.903,121.863L25.806,133.669L38.71,141.109L51.613,137.445L64.516,144.961L77.419,140.454L90.323,152.814L103.226,149.613L116.129,150.054L129.032,147.348L141.935,147.918L154.839,148.129L167.742,149.908L180.645,150.191L193.548,149.219L206.452,147.186L219.355,144.454L232.258,148.724L245.161,161.607L258.065,162.366L270.968,165.329L283.871,164.946L296.774,163.133L309.677,157.951L322.581,151.076L335.484,146.529L348.387,143.588L361.29,145.75L374.194,144.058L387.097,150.311L400,148.449" stroke="#122b39" stroke-width="3" opacity="1"/></g></g><path class="foreground" aria-hidden="true" d="" display="none"/></g><g transform="translate(0,0)"><path class="background" aria-hidden="true" d="M0,0h400v300h-400Z"/><g><g class="mark-line role-mark layer_1_marks" clip-path="url(#clip55)" role="graphics-object" aria-roledescription="line mark container"><path aria-label="Time: 1990; Value: 21.704642%; LOCATION: CAN" role="graphics-symbol" aria-roledescription="line mark" d="M0,113.96L12.903,126.311L25.806,133.84L38.71,140.086L51.613,133.764L64.516,142.737L77.419,138.799L90.323,126.005L103.226,123.817L116.129,126.942L129.032,132.007L141.935,127.272L154.839,128.787L167.742,128.466L180.645,121.076L193.548,112.824L206.452,103.845L219.355,99.952L232.258,98.837L245.161,108.797L258.065,98.904L270.968,98.481L283.871,90.049L296.774,92.681L309.677,90.949L322.581,95.566L335.484,104.808L348.387,105.46L361.29,105.634L374.194,106.457L387.097,98.394L400,94.208" stroke="#179fdb" stroke-width="1.5" opacity="0.8"/></g></g><path class="foreground" aria-hidden="true" d="" display="none"/></g><g transform="translate(0,0)"><path class="background" aria-hidden="true" d="M0,0h400v300h-400Z"/><g><g class="mark-line role-mark layer_1_marks" clip-path="url(#clip56)" role="graphics-object" aria-roledescription="line mark container"><path aria-label="Time: 1990; Value: 34.956192%; LOCATION: JPN" role="graphics-symbol" aria-roledescription="line mark" d="M0,0.375L12.903,3.031L25.806,14.353L38.71,28.417L51.613,37.532L64.516,37.664L77.419,29.351L90.323,37.854L103.226,49.006L116.129,52.268L129.032,55.824L141.935,62.306L154.839,74.911L167.742,79.6L180.645,82.938L193.548,77.991L206.452,76.76L219.355,82.242L232.258,83.204L245.161,97.506L258.065,106.117L270.968,99.847L283.871,96.226L296.774,89.515L309.677,84.99L322.581,85.959L335.484,87.766L348.387,85.651L361.29,83.419L374.194,81.021L387.097,81.279L400,80.623" stroke="#36b7b4" stroke-width="1.5" opacity="0.8"/></g></g><path class="foreground" aria-hidden="true" d="" display="none"/></g></g><g class="mark-symbol role-mark layer_2_marks" role="graphics-object" aria-roledescription="symbol mark container"><path aria-label="Time: 2021; Value: 21.186197%; LOCATION: USA" role="graphics-symbol" aria-roledescription="circle" transform="translate(400,118.4040253970013)" d="M2.739,0A2.739,2.739,0,1,1,-2.739,0A2.739,2.739,0,1,1,2.739,0" fill="#179fdb" stroke-width="2" opacity="0.8"/><path aria-label="Time: 2021; Value: 17.680956%; LOCATION: GBR" role="graphics-symbol" aria-roledescription="circle" transform="translate(400,148.44894982644234)" d="M2.739,0A2.739,2.739,0,1,1,-2.739,0A2.739,2.739,0,1,1,2.739,0" fill="#122b39" stroke-width="2" opacity="1"/><path aria-label="Time: 2021; Value: 24.009112%; LOCATION: CAN" role="graphics-symbol" aria-roledescription="circle" transform="translate(400,94.20761013466579)" d="M2.739,0A2.739,2.739,0,1,1,-2.739,0A2.739,2.739,0,1,1,2.739,0" fill="#179fdb" stroke-width="2" opacity="0.8"/><path aria-label="Time: 2021; Value: 25.593993%; LOCATION: JPN" role="graphics-symbol" aria-roledescription="circle" transform="translate(400,80.62291641203198)" d="M2.739,0A2.739,2.739,0,1,1,-2.739,0A2.739,2.739,0,1,1,2.739,0" fill="#36b7b4" stroke-width="2" opacity="0.8"/><path aria-label="Time: 2021; Value: 21.299451%; LOCATION: DEU" role="graphics-symbol" aria-roledescription="circle" transform="translate(400,117.4332747890793)" d="M2.739,0A2.739,2.739,0,1,1,-2.739,0A2.739,2.739,0,1,1,2.739,0" fill="#e6224b" stroke-width="2" opacity="0.8"/><path aria-label="Time: 2021; Value: 24.467191%; LOCATION: FRA" role="graphics-symbol" aria-roledescription="circle" transform="translate(400,90.28121648387688)" d="M2.739,0A2.739,2.739,0,1,1,-2.739,0A2.739,2.739,0,1,1,2.739,0" fill="#f4c245" stroke-width="2" opacity="0.8"/><path aria-label="Time: 2021; Value: 20.491175%; LOCATION: ITA" role="graphics-symbol" aria-roledescription="circle" transform="translate(400,124.36135744752048)" d="M2.739,0A2.739,2.739,0,1,1,-2.739,0A2.739,2.739,0,1,1,2.739,0" fill="#eb5c2e" stroke-width="2" opacity="0.8"/></g><g class="mark-text role-mark layer_3_marks" role="graphics-object" aria-roledescription="text mark container"><text aria-label="Value: 21.186197%; LOCATION: USA; Country: United States" role="graphics-symbol" aria-roledescription="text mark" text-anchor="middle" transform="translate(401,121.4040253970013)" font-family="Circular Std" font-size="11px" fill="#179fdb" opacity="0.8">United States</text><text aria-label="Value: 17.680956%; LOCATION: GBR; Country: United Kingdom" role="graphics-symbol" aria-roledescription="text mark" text-anchor="middle" transform="translate(401,151.44894982644234)" font-family="Circular Std" font-size="11px" fill="#122b39" opacity="1">United Kingdom</text><text aria-label="Value: 24.009112%; LOCATION: CAN; Country: Canada" role="graphics-symbol" aria-roledescription="text mark" text-anchor="middle" transform="translate(401,97.20761013466579)" font-family="Circular Std" font-size="11px" fill="#179fdb" opacity="0.8">Canada</text><text aria-label="Value: 25.593993%; LOCATION: JPN; Country: Japan" role="graphics-symbol" aria-roledescription="text mark" text-anchor="middle" transform="translate(401,83.62291641203198)" font-family="Circular Std" font-size="11px" fill="#36b7b4" opacity="0.8">Japan</text><text aria-label="Value: 21.299451%; LOCATION: DEU; Country: Germany" role="graphics-symbol" aria-roledescription="text mark" text-anchor="middle" transform="translate(401,120.4332747890793)" font-family="Circular Std" font-size="11px" fill="#e6224b" opacity="0.8">Germany</text><text aria-label="Value: 24.467191%; LOCATION: FRA; Country: France" role="graphics-symbol" aria-roledescription="text mark" text-anchor="middle" transform="translate(401,93.28121648387688)" font-family="Circular Std" font-size="11px" fill="#f4c245" opacity="0.8">France</text><text aria-label="Value: 20.491175%; LOCATION: ITA; Country: Italy" role="graphics-symbol" aria-roledescription="text mark" text-anchor="middle" transform="translate(401,127.36135744752048)" font-family="Circular Std" font-size="11px" fill="#eb5c2e" opacity="0.8">Italy</text></g></g><path class="foreground" aria-hidden="true" d="" display="none"/></g></g></g><defs><clipPath id="clip50"><rect x="0" y="0" width="400" height="300"/></clipPath><clipPath id="clip51"><rect x="0" y="0" width="400" height="300"/></clipPath><clipPath id="clip52"><rect x="0" y="0" width="400" height="300"/></clipPath><clipPath id="clip53"><rect x="0" y="0" width="400" height="300"/></clipPath><clipPath id="clip54"><rect x="0" y="0" width="400" height="300"/></clipPath><clipPath id="clip55"><rect x="0" y="0" width="400" height="300"/></clipPath><clipPath id="clip56"><rect x="0" y="0" width="400" height="300"/></clipPath></defs></svg>